<mxfile host="app.diagrams.net" agent="Mozilla/5.0 (Windows NT 10.0; Win64; x64) AppleWebKit/537.36 (KHTML, like Gecko) Chrome/127.0.0.0 Safari/537.36" version="24.7.6">
  <diagram name="Página-1" id="Q6lQCAmNIQND37gro4Kb">
    <mxGraphModel dx="1588" dy="918" grid="1" gridSize="10" guides="1" tooltips="1" connect="1" arrows="1" fold="1" page="1" pageScale="1" pageWidth="827" pageHeight="1169" math="0" shadow="0">
      <root>
        <mxCell id="0" />
        <mxCell id="1" parent="0" />
        <mxCell id="-e2VIy9ENHfPkWqXhviz-3" style="edgeStyle=orthogonalEdgeStyle;rounded=0;orthogonalLoop=1;jettySize=auto;html=1;entryX=0;entryY=0.5;entryDx=0;entryDy=0;endArrow=none;endFill=0;" edge="1" parent="1" source="-e2VIy9ENHfPkWqXhviz-1" target="-e2VIy9ENHfPkWqXhviz-2">
          <mxGeometry relative="1" as="geometry" />
        </mxCell>
        <mxCell id="-e2VIy9ENHfPkWqXhviz-1" value="CLIENTE" style="rounded=0;whiteSpace=wrap;html=1;" vertex="1" parent="1">
          <mxGeometry x="100" y="120" width="80" height="60" as="geometry" />
        </mxCell>
        <mxCell id="-e2VIy9ENHfPkWqXhviz-5" style="edgeStyle=orthogonalEdgeStyle;rounded=0;orthogonalLoop=1;jettySize=auto;html=1;entryX=0;entryY=0.5;entryDx=0;entryDy=0;endArrow=none;endFill=0;startArrow=none;startFill=0;" edge="1" parent="1" source="-e2VIy9ENHfPkWqXhviz-2" target="-e2VIy9ENHfPkWqXhviz-4">
          <mxGeometry relative="1" as="geometry" />
        </mxCell>
        <mxCell id="-e2VIy9ENHfPkWqXhviz-2" value="PRODUCTO" style="rounded=0;whiteSpace=wrap;html=1;" vertex="1" parent="1">
          <mxGeometry x="310" y="120" width="90" height="60" as="geometry" />
        </mxCell>
        <mxCell id="-e2VIy9ENHfPkWqXhviz-4" value="PROVEEDOR" style="rounded=0;whiteSpace=wrap;html=1;" vertex="1" parent="1">
          <mxGeometry x="520" y="120" width="90" height="60" as="geometry" />
        </mxCell>
        <mxCell id="-e2VIy9ENHfPkWqXhviz-6" value="compra" style="text;html=1;align=center;verticalAlign=middle;whiteSpace=wrap;rounded=0;" vertex="1" parent="1">
          <mxGeometry x="220" y="70" width="60" height="30" as="geometry" />
        </mxCell>
        <mxCell id="-e2VIy9ENHfPkWqXhviz-7" value="suministra" style="text;html=1;align=center;verticalAlign=middle;whiteSpace=wrap;rounded=0;" vertex="1" parent="1">
          <mxGeometry x="440" y="70" width="60" height="30" as="geometry" />
        </mxCell>
        <mxCell id="-e2VIy9ENHfPkWqXhviz-8" value="N" style="text;html=1;align=center;verticalAlign=middle;whiteSpace=wrap;rounded=0;" vertex="1" parent="1">
          <mxGeometry x="270" y="120" width="60" height="30" as="geometry" />
        </mxCell>
        <mxCell id="-e2VIy9ENHfPkWqXhviz-10" value="N" style="text;html=1;align=center;verticalAlign=middle;whiteSpace=wrap;rounded=0;" vertex="1" parent="1">
          <mxGeometry x="380" y="120" width="60" height="30" as="geometry" />
        </mxCell>
        <mxCell id="-e2VIy9ENHfPkWqXhviz-11" value="N" style="text;html=1;align=center;verticalAlign=middle;whiteSpace=wrap;rounded=0;" vertex="1" parent="1">
          <mxGeometry x="160" y="120" width="60" height="30" as="geometry" />
        </mxCell>
        <mxCell id="-e2VIy9ENHfPkWqXhviz-13" value="1" style="text;html=1;align=center;verticalAlign=middle;whiteSpace=wrap;rounded=0;" vertex="1" parent="1">
          <mxGeometry x="470" y="120" width="60" height="30" as="geometry" />
        </mxCell>
        <mxCell id="-e2VIy9ENHfPkWqXhviz-14" value="CONCEPTUAL" style="text;html=1;align=center;verticalAlign=middle;whiteSpace=wrap;rounded=0;fontSize=22;fontStyle=1" vertex="1" parent="1">
          <mxGeometry x="215" y="30" width="280" height="30" as="geometry" />
        </mxCell>
        <mxCell id="-e2VIy9ENHfPkWqXhviz-15" value="LÓGICO" style="text;html=1;align=center;verticalAlign=middle;whiteSpace=wrap;rounded=0;fontSize=22;fontStyle=1" vertex="1" parent="1">
          <mxGeometry x="220" y="220" width="280" height="30" as="geometry" />
        </mxCell>
        <mxCell id="-e2VIy9ENHfPkWqXhviz-16" style="edgeStyle=orthogonalEdgeStyle;rounded=0;orthogonalLoop=1;jettySize=auto;html=1;entryX=0;entryY=0.5;entryDx=0;entryDy=0;endArrow=ERzeroToMany;endFill=0;startArrow=ERzeroToMany;startFill=0;" edge="1" parent="1" source="-e2VIy9ENHfPkWqXhviz-17" target="-e2VIy9ENHfPkWqXhviz-19">
          <mxGeometry relative="1" as="geometry">
            <mxPoint y="300" as="sourcePoint" />
            <mxPoint x="130" y="300" as="targetPoint" />
          </mxGeometry>
        </mxCell>
        <mxCell id="-e2VIy9ENHfPkWqXhviz-17" value="CLIENTE" style="rounded=0;whiteSpace=wrap;html=1;" vertex="1" parent="1">
          <mxGeometry x="100" y="280" width="80" height="60" as="geometry" />
        </mxCell>
        <mxCell id="-e2VIy9ENHfPkWqXhviz-18" style="edgeStyle=orthogonalEdgeStyle;rounded=0;orthogonalLoop=1;jettySize=auto;html=1;entryX=0;entryY=0.5;entryDx=0;entryDy=0;endArrow=ERone;endFill=0;startArrow=ERzeroToMany;startFill=0;" edge="1" parent="1" source="-e2VIy9ENHfPkWqXhviz-19" target="-e2VIy9ENHfPkWqXhviz-20">
          <mxGeometry relative="1" as="geometry" />
        </mxCell>
        <mxCell id="-e2VIy9ENHfPkWqXhviz-19" value="PRODUCTO" style="rounded=0;whiteSpace=wrap;html=1;" vertex="1" parent="1">
          <mxGeometry x="310" y="280" width="90" height="60" as="geometry" />
        </mxCell>
        <mxCell id="-e2VIy9ENHfPkWqXhviz-20" value="PROVEEDOR" style="rounded=0;whiteSpace=wrap;html=1;" vertex="1" parent="1">
          <mxGeometry x="520" y="280" width="90" height="60" as="geometry" />
        </mxCell>
        <mxCell id="-e2VIy9ENHfPkWqXhviz-26" style="edgeStyle=orthogonalEdgeStyle;rounded=0;orthogonalLoop=1;jettySize=auto;html=1;" edge="1" parent="1" source="-e2VIy9ENHfPkWqXhviz-23" target="-e2VIy9ENHfPkWqXhviz-25">
          <mxGeometry relative="1" as="geometry" />
        </mxCell>
        <mxCell id="-e2VIy9ENHfPkWqXhviz-23" value="&quot;Adriana&quot;" style="text;html=1;align=center;verticalAlign=middle;whiteSpace=wrap;rounded=0;" vertex="1" parent="1">
          <mxGeometry x="100" y="360" width="60" height="30" as="geometry" />
        </mxCell>
        <mxCell id="-e2VIy9ENHfPkWqXhviz-27" style="edgeStyle=orthogonalEdgeStyle;rounded=0;orthogonalLoop=1;jettySize=auto;html=1;entryX=0.25;entryY=1;entryDx=0;entryDy=0;" edge="1" parent="1" source="-e2VIy9ENHfPkWqXhviz-25" target="-e2VIy9ENHfPkWqXhviz-23">
          <mxGeometry relative="1" as="geometry" />
        </mxCell>
        <mxCell id="-e2VIy9ENHfPkWqXhviz-25" value="&quot;Azucar&quot;" style="text;html=1;align=center;verticalAlign=middle;whiteSpace=wrap;rounded=0;" vertex="1" parent="1">
          <mxGeometry x="330" y="400" width="60" height="30" as="geometry" />
        </mxCell>
        <mxCell id="-e2VIy9ENHfPkWqXhviz-30" style="edgeStyle=orthogonalEdgeStyle;rounded=0;orthogonalLoop=1;jettySize=auto;html=1;entryX=0;entryY=0.5;entryDx=0;entryDy=0;endArrow=ERzeroToMany;endFill=0;startArrow=ERzeroToMany;startFill=0;" edge="1" parent="1" source="-e2VIy9ENHfPkWqXhviz-31" target="-e2VIy9ENHfPkWqXhviz-33">
          <mxGeometry relative="1" as="geometry">
            <mxPoint y="470" as="sourcePoint" />
            <mxPoint x="130" y="470" as="targetPoint" />
          </mxGeometry>
        </mxCell>
        <mxCell id="-e2VIy9ENHfPkWqXhviz-31" value="CLIENTE&lt;div&gt;&lt;span style=&quot;background-color: initial;&quot;&gt;(PK) id&lt;/span&gt;&lt;div&gt;nro_legajo&lt;/div&gt;&lt;/div&gt;" style="rounded=0;whiteSpace=wrap;html=1;" vertex="1" parent="1">
          <mxGeometry x="100" y="450" width="80" height="60" as="geometry" />
        </mxCell>
        <mxCell id="-e2VIy9ENHfPkWqXhviz-32" style="edgeStyle=orthogonalEdgeStyle;rounded=0;orthogonalLoop=1;jettySize=auto;html=1;entryX=0;entryY=0.5;entryDx=0;entryDy=0;endArrow=ERone;endFill=0;startArrow=ERzeroToMany;startFill=0;" edge="1" parent="1" source="-e2VIy9ENHfPkWqXhviz-33" target="-e2VIy9ENHfPkWqXhviz-34">
          <mxGeometry relative="1" as="geometry" />
        </mxCell>
        <mxCell id="-e2VIy9ENHfPkWqXhviz-33" value="PRODUCTO&lt;div&gt;(PK) id&lt;/div&gt;" style="rounded=0;whiteSpace=wrap;html=1;" vertex="1" parent="1">
          <mxGeometry x="310" y="450" width="90" height="60" as="geometry" />
        </mxCell>
        <mxCell id="-e2VIy9ENHfPkWqXhviz-34" value="PROVEEDOR&lt;div&gt;(PK) id&lt;/div&gt;" style="rounded=0;whiteSpace=wrap;html=1;" vertex="1" parent="1">
          <mxGeometry x="520" y="450" width="90" height="60" as="geometry" />
        </mxCell>
        <mxCell id="-e2VIy9ENHfPkWqXhviz-35" value="FÍSICO" style="text;html=1;align=center;verticalAlign=middle;whiteSpace=wrap;rounded=0;fontSize=22;fontStyle=1" vertex="1" parent="1">
          <mxGeometry x="215" y="585" width="280" height="30" as="geometry" />
        </mxCell>
        <mxCell id="-e2VIy9ENHfPkWqXhviz-36" style="edgeStyle=orthogonalEdgeStyle;rounded=0;orthogonalLoop=1;jettySize=auto;html=1;entryX=0;entryY=0.5;entryDx=0;entryDy=0;endArrow=ERzeroToMany;endFill=0;startArrow=ERone;startFill=0;" edge="1" parent="1" source="-e2VIy9ENHfPkWqXhviz-37" target="-e2VIy9ENHfPkWqXhviz-41">
          <mxGeometry relative="1" as="geometry">
            <mxPoint y="670" as="sourcePoint" />
            <mxPoint x="130" y="670" as="targetPoint" />
          </mxGeometry>
        </mxCell>
        <mxCell id="-e2VIy9ENHfPkWqXhviz-37" value="CLIENTE&lt;div&gt;&lt;span style=&quot;background-color: initial;&quot;&gt;(PK) id&lt;/span&gt;&lt;div&gt;nro_legajo&lt;/div&gt;&lt;/div&gt;" style="rounded=0;whiteSpace=wrap;html=1;" vertex="1" parent="1">
          <mxGeometry x="170" y="650" width="80" height="60" as="geometry" />
        </mxCell>
        <mxCell id="-e2VIy9ENHfPkWqXhviz-38" style="edgeStyle=orthogonalEdgeStyle;rounded=0;orthogonalLoop=1;jettySize=auto;html=1;entryX=0;entryY=0.5;entryDx=0;entryDy=0;endArrow=ERone;endFill=0;startArrow=ERzeroToMany;startFill=0;" edge="1" parent="1" source="-e2VIy9ENHfPkWqXhviz-39" target="-e2VIy9ENHfPkWqXhviz-40">
          <mxGeometry relative="1" as="geometry" />
        </mxCell>
        <mxCell id="-e2VIy9ENHfPkWqXhviz-39" value="PRODUCTO&lt;div&gt;(PK) id&lt;/div&gt;" style="rounded=0;whiteSpace=wrap;html=1;" vertex="1" parent="1">
          <mxGeometry x="540" y="650" width="90" height="60" as="geometry" />
        </mxCell>
        <mxCell id="-e2VIy9ENHfPkWqXhviz-40" value="PROVEEDOR&lt;div&gt;(PK) id&lt;/div&gt;" style="rounded=0;whiteSpace=wrap;html=1;" vertex="1" parent="1">
          <mxGeometry x="766" y="650" width="90" height="60" as="geometry" />
        </mxCell>
        <mxCell id="-e2VIy9ENHfPkWqXhviz-41" value="CLIENTE_PRODUCTO&lt;div&gt;(PK) id&lt;/div&gt;" style="rounded=0;whiteSpace=wrap;html=1;" vertex="1" parent="1">
          <mxGeometry x="320" y="650" width="160" height="60" as="geometry" />
        </mxCell>
        <mxCell id="-e2VIy9ENHfPkWqXhviz-44" style="edgeStyle=orthogonalEdgeStyle;rounded=0;orthogonalLoop=1;jettySize=auto;html=1;endArrow=ERzeroToMany;endFill=0;startArrow=ERone;startFill=0;" edge="1" parent="1" source="-e2VIy9ENHfPkWqXhviz-39" target="-e2VIy9ENHfPkWqXhviz-41">
          <mxGeometry relative="1" as="geometry">
            <mxPoint x="190" y="690" as="sourcePoint" />
            <mxPoint x="299" y="690" as="targetPoint" />
          </mxGeometry>
        </mxCell>
        <mxCell id="-e2VIy9ENHfPkWqXhviz-45" value="" style="curved=1;endArrow=classic;html=1;rounded=0;entryX=0.648;entryY=-0.056;entryDx=0;entryDy=0;entryPerimeter=0;" edge="1" parent="1" target="-e2VIy9ENHfPkWqXhviz-41">
          <mxGeometry width="50" height="50" relative="1" as="geometry">
            <mxPoint x="220" y="490" as="sourcePoint" />
            <mxPoint x="410" y="570" as="targetPoint" />
            <Array as="points">
              <mxPoint x="230" y="580" />
              <mxPoint x="430" y="560" />
            </Array>
          </mxGeometry>
        </mxCell>
        <mxCell id="-e2VIy9ENHfPkWqXhviz-47" value="" style="shape=image;verticalLabelPosition=bottom;labelBackgroundColor=default;verticalAlign=top;aspect=fixed;imageAspect=0;image=data:image/png,iVBORw0KGgoAAAANSUhEUgAABfYAAAHLCAYAAACK1slNAAAAAXNSR0IArs4c6QAAAARnQU1BAACxjwv8YQUAAAAJcEhZcwAADsMAAA7DAcdvqGQAALMoSURBVHhe7P1/tCN1nej9frbi8NMBGgWEccDTSct0b2x9EH8kl0HHA21232e5e85afeU6TgN/JKOsZ+2t0M46y1YbbdddYzeaPM9ldO/7PELreJnb5zn25pzbicB1EDnJUZCjLbt7mE56oHVoAaWB4bfi5NanUpVUKpWkklSSquT9Wl29k0pSqarkm/rmU598vjNVg7Rx6NAh2bBhg3UNmE60A4B2ACjaAUA7mHa8/gDtAFC0AyAc7eB11l8AAAAAAAAAABABBPYBAAAAAAAAAIgQAvsAAAAAAAAAAEQIgX0AAAAAAAAAACKEwD4AAAAAAAAAABFCYB8AAAAAAAAAgAghsA8AAAAAAAAAQIQQ2AcAAAAAAAAAIEII7AMAAAAAAAAAECEE9gEAAAAAAAAAiBAC+wAAAAAAAAAARAiBfQAAAAAAAAAAIoTAPgAAAAAAAAAAEUJgHwAAAAAAAACACCGwDwAAAAAAAABAhBDYBwAAAAAAAAAgQgjsAwAAAAAAAAAQIQT2AQAAAAAAAACIEAL7AAAAAAAAAABEyMzq6mrVugwAAAAAAAAAAEJupmqwLrc4dOiQbNiwwboGTCfaAUA7ABTtAKAdTDtef4B2ACjaARCOdkApHgAAAAAAAAAAIoTAPgAAAAAAAAAAEUJgHwAAAAAAAACACCGwDwAAAAAAAABAhBDYBwAAAAAAAAAgQgjsAwAAAAAAAAAQIQT2AQAAAAAAAACIEAL7AAAAAAAAAABECIF9AAAAAAAAAAAihMA+AAAAAAAAAAARQmAfAAAAAAAAAIAIIbAPAAAAAAAAAECEBB/Yr1SkkMtIMpmUmZmZxmRcT2ZykitUrDu6FSSXtO+fMa71ws9jK477+JuSOa91dS8nKRmfK1vI2fskKc5FFzLO5fUzNS8vuG0FAAD+dT/+av8okytod6kLH8dyq29V6L4wb+36bMZkrqe5bOu+Xfnpexjrm8z43H5bQTL1x/fSP3Suj/E4v8/XYz82+D6ch0BfJ2AMemxXHQXcHgqZ5uXo+vTfnIzPK9fnYPvvWBE7Xhgq9e+yOhnr1tsXdgAAMAzVDlZXV61LfpSr+XSiqovsOiXS1WzZelhdvpqu3ydtXOuFn8c67+NvSrSupMFrOf7WN5+2759o2v7G/P6ndNMKBLWtUL21A2Ay0Q4AP+2gt+Nvwjh4tz/69ngsT2Q7LMuthz6bTka/Ld914X30PdLZHpfbS/+wXM0m7Mc197u89dePDb4P5zSM12lwHA+m22i/HzqN8HOrfaPsqJz1WL+2n81ROV7YnJ+p1tTnfpoEfA4CtANAhaEdzOh/xoHZ06FDh2TDhg3WtU40O2FOlkvWVUsikZbZ2drl1dVlKTXdnpZ8dUlS1rVaRpaxDPOy+7Zu/DzWeZ+EZPM7ZJ15ub14KiUx63KDczkO6bxUlzqvsWZ1zZkPNJ6/XJQFa+GVQk52rxyuXXFx7jfn/my2XuaXFtrsy0G2Fcp/OwAmF+0A8NMOOh9/j6ysyD53f6ht/6HLso6syOF9y819r0RWysWFzsfzirHcbcZyO/TZjM6HcbvrDq6+S6tufY8jsrKyT1aNJ25eci/L7aV/qBmscVk0n8zHc/TZj40H3oezDO11GhzHg+k22u+HlpF8bjn1+l1UtVlW289l5/1bPzNDcbxwKmRkpvZF1mH4nzdhxecgQDsAVCjagRneb8PfmQf32ftENd02PaJczWfT1YR1v+asjH4zspSfxw6yfCfHchIJa1t06p4N1i5jvxNnJpj/pIigthWKM9EA7QBQ3duBv+OvO6vT+/juc1n5tI9l2ZzL1KlTn6227EY/p3b/9v0X/32Pcj47lOU285uxH1Q/tlV/fTg1zNdpcBwPpttovx+q0X1upftuswbHZ3E66/iM85WxH8bjRbPG55nup8Y6TeuvvvkcBGgHgApDOxi4xn4lt83KhlK1s/ZLqXan7WOSWliSYrUs2ewO2Rz5s/tbZavRi6opyeJuCg0CAIDOYgtFydf7DyLLK/33H2KpJd/LKmSc2aTd+my1ZRfLeWksPpi+Tiy1YPQFjeUmrBm63G2D1LXuXxj7sWF5nYB+BdmuRtke5rdnjWeoWd7Vy2dSRXK77LVMy/xm62IAxnW8aFaQlfrmzcvS9q31/VTad2Asn90AAKBmwMB+QXY3em2SyO71+VO8mCwsTEbpl82ODqDRA+w+ABoAAJh6qfmm6IrRo+pf07JWj3gHWSo5qcedDOm8z/IJsZQsNUWCgurrGMvd6+hDlRZl9LHoEPZjQ/c6Ab0KsF2Nuj3ENsvWRsRaDvhtQ5UDss/a5ER2e48lfLob+fHCrbBSP7mSnje2rt/9BAAAAjdQYL+S2+XIoEjLDn+9tskSW5C92XrPZmwZZwAAIELi6xtB7RGoHNhn9FIsiaxs7yXylNou9a6OsZR9QUVxmvpQGnsbbR8qjP3YUL5OQA+CbFejbw8x2dyIWPtuQ4Xdi9Z6JmTrMH7KM+LjhVuhka4vGtfvdz8BAIDgDRDYr8gBOzXBMIzshKiILewwujmWsWScAQCAaVU5smpdMsyu88gkd/XZtm72uE8nziCO0dU5XLYuDS62uVHSYbSZn2Hsx4b3dQL8CbJdjac9OL/XlRZ3+8iOd5SpSWwNfanZ7scLt+YyPPbr6fzsphwPAADjM0BgvyyHG30to18Q8l7MUKVk+xgzzgAAQLQ0Z6Kul7h1sWeVnGxzlL0wyyS0cPbZ+ssoja2btS4Z/JZv8CO2ThpLLsnoYtFh7MeG+HUCfAmyXY2rPaSkUa1mWbqVoXf+QiG9Y6HHkw/+jPZ40axp+5z3byrHQ2IbAADj0n9gv3JEGuf7E7K+7x7GOKzKkUJBCh2mXr8IubP2t4WmsGnw2woAAAYxaCaqqkilkJFk3C4BYUjnZckrTtPUZ5uVvmJtzlIQpcMSXPw9LusbuRGyemREvZIw9mND/ToBPgTZrsbYHpx16DsnbDk/y+0yNUEb8fGiSafta/5FxCCD+gIAgP71H9gvH250DPrtbI1NSRbn5mSuw9R71kHzIE3+fro5CsPYVgAA0J+KFDJxaSRN+qlBvSxzMzMy0zTFJT63bPXFEpLOlqXaPUoTQjFxJtWOTKT7sUBITUq7Ss07ErY6lAgr7K5/lg+nnNeYjxeOQYGdZXhsTaXUBhzUFwAA9GegwXMnV58ZJk2DNC3LrtBk7XcStV9bAAAQBe5fzOUkl0lKciYuc3ZdA0M6vzRYMCiRlXy1KEudgj1NwTaEFq8T0DDW9uAss9p+cNjGoLKDDpobouOFg7MEkGfZHmc5HuO7L0n7AACM3pQG9tNGp6Yq1bZTUXz2d1xisrDDmbW/TcYf2x/WtgIAgPbcv5hblMXlUiNQlUhLtlz1UQpBJSSbz0vemrLpRCNLsrQoc8kuY/s4y1EgvHidgIYxt4emwWG9foldycmuRnH9Ab9Pheh4UeenzBDleAAAGLf+A/t8+fCWWpJGRR6jk0adGwAAYEpIQgM0+bJUi0s9BIJmZV0qJSlrWlgqSrGcd5SKWJR4Jqr9jYocaRTSHt0gtvRjgeBNUrvqko3eNZt9YGM+XnQpw2OjHA8AAOMVUMb+qoxqrLMoSG3POjo4u0KQtQ8AAEbL6xdzRSlqgCYVQPA6lpKlss/+RmydNMrY99lnc5bFSKyX4Kr4leVwY8FjKg8Ykn5sqF8noFcDtquxt4fmX2I3Z6MXZHe98H0Qg+aG6HhhKexuDLSbkCOOMkGuqSwy6zgBEo1StAAATI7+A/tNna32tQenUmxBGv1AsvYBAMAQ+O5vxGV9PfBSksNl62IPGrWkDbPrJLC8+soRaSTsBznYpvOEgcdyQ9mPDfHrBPgRaLsKQXtwDqLrDIYXVsRe8nAGzR2Cnr6fFsS560rLi44yQe5pUZbrn7XGffcd8FnqBwAABGGAjP2UzDeSGDiIu6SWHD95JGsfAAAMQcrZGWtbBiEm6xrRtj7qIDcHeYIsO+HMCvUu9+AM7vUwOGPTCQMvYezHhvd1AvwJsl2FoT04t8c+UVGRXL24/qCD5o6Wv+OFwXHiomelfUK+HwAAozNQKZ6mzkFpUUhMd0rJ9qz9TZSsfQAAMASp7VLvbnQIfDcHdHpLOKjkdjmCPEGUnbA4B580eAfe+gvuOetfe58wCGc/NpSvE9CDINtVGNqDs8SqOYhuU+35QQfNHTGfxwvnLx3SeXeJIK+p7Fguv+QHAGCUBqux39Q5MLoHcxmjs2Nd6agihVyufZbAhIgt7HBk7c/JnOPLKwAAwOBisrkxwqMs78p5Z8g29dlKsritzf3cKjnZVq8lHWDZiUpBMnFHtn4iK9vbLLj34J6z/rXG9dstOIT92LC9TkCvgmxXYWgPrkF05xyfW9H7VYyf44Xzlw5+T4g0L5df8gMAMDoDDp4bk4W9joF4zM5OUjJte28V43tcRpIzcZlb3BeOgcqGypm1DwAAELzY5q2NvljbMgjNA0FqJm08mZFcpX2frZAz+myu4PvegdNTrb5gfK4pmzZfXDDWsA13cK9TX1NPGCQdy+5wwiCc/diwvE5Av4JsV2FoD81B67qOny3h1fV44SzD0+bXTl6aEtooxwMAwMjMVPX3c20cOnRINmzYYF3rQDtjc8uNDpQlkUjLrPXz6dXVVSmVnPdISLZcdPx80fgiNmN/EUtIIj3rGHzJw/x2WUrZD3Y+1vhyWF3y6IQ0Lz+b3yHrzMsdxFNSf4o6x3KMDl250xdRU0Vyybg4kkYM7m1vr5CZqWf6608hl3z1roLaVijf7QCYYLQDwE878NMf8au3ZTn7C4lsWYptOhmVXFLizZ0Sg6vfZfTZlpv6bIaufZ7mvodXP2511egrup/ad5/IuXyb83lWZXW55OqL+nwNAunHtuqvD1czvNdpcBwPpttovx/WjOZzq9PnRevnT6fPWf3FQP3kQtt16O0zvrPeltXpeDHI55bzscaDpdrLgyOGz0GAdgCoULQDDey3Y3S2rEs+lLPVdEL0JEH3KZGoZvNl64G2fDXtdd92UyJbbSzB+di0cc1Lj8vXyejNtHIsp2kdOsinXcs2tt/XA/Whjcd5ro6noLYVqqd2AEwo2gHgpx346Y/41eOymvoane9fzvfQZzP6LOls3kd/p/e+R8Loe/jsDtWUjefwud6JtM8+mm3gfmyr/vpwDcN5nQbH8WC6jfb7YcPwP7c6f24623PX73LGdifs+7b9vhjC44VzvftZpx6OQ1HH5yBAOwBUGNrBgKV4HGILslSsSrmcl6zR60q4f7FozDC+ZEm+XJZqsSgLLenhcVnv8SvHtmbXNWU+dH9sj8vvoOflpJak7CzJk5iVdW0SPNpLyHrrUnfBbSsAAPAvyONvT8tKzYvR/bKsdiwTE0tZfbZ81rvPppmwibRks3kpV4uytJDykQHuo+9h9gWN5ebLxnKrUlzys1yHWMpnX1OX3WPW+sD92E566cM1DOd1AkYowHY1rPZQ/9xKdG6lqflGeaFEL4Pmur6zOoXueFE+XP+FRaKHMjx1ulzrYrfjEAAACEYwpXiACUY7AGgHgKIdALSDacfrD9AOAEU7AMLRDoLL2AcAAAAAAAAAAENHYB8AAAAAAAAAgAghsA8AAAAAAAAAQIQQ2AcAAAAAAAAAIEII7AMAAAAAAAAAECEE9gEAAAAAAAAAiBAC+wAAAAAAAAAARAiBfQAAAAAAAAAAIoTAPgAAAAAAAAAAETKzurpatS4DAAAAAAAAAICQm6karMstDh06JBs2bLCuAdOJdgDQDgBFOwBoB9OO1x+gHQCKdgCEox1QigcAAAAAAAAAgAghsA8AAAAAAAAAQIQQ2AcAAAAAAAAAIEII7AMAAAAAAAAAECEE9gEAAAAAAAAAiBAC+wAAAAAAAAAARAiBfQAAAAAAAAAAIoTAPgAAAAAAAAAAEUJgHwAAAAAAAACACCGwDwAAAAAAAABAhBDYBwAAAABMjUouKTMzM/UpmatYt4RdQXJJx3pnCtZ8AAAwjQYM7FekUihIwZgG7QoVMnYHJSmR6VcBAADU0S8CgLpCRpJWAFo/yzKDfJg1LcuYMgN8zlZysm2xZF1RCdm6OWZdDr/DjlUvLa8Iof2QC2s7GKLWE2ce79Ig9wvCbwrbQWSxfyNnoMB+JbdN4nNzMmdM8WQuoBe7JIfL1kUAAICIoF8EALaCZOaWjU8wW0mW9x3o+3OxsOJcVk1/ofiK5LYtNi0rkd0rC+6FuQMbXlMyKclMTgqVzlvlDnLOdDo+VHKScWTk65QpOO+dkvm0ddG0KkeCOdhgKMLaDoapIgf2udcybv21BbtfEHbT2A6ii/0bPQMF9stN6QKHhe+dAABgWtEvAgBLYUWWrYt1s+v6DsYfWbUuWhLr3YFCnwq7pSlZX9KyoyWqX5HcrtbARotSSUrLizIXj3cI1nsFOdspSCa+KMstd++010qy7wDh0NAKazsYqnLTr0rU7DrXFge6XxB6U9kOoor9G0UDBfZT82lJWJcT6XlJWZcBAACmDf0iAKipuCMDhv6DAz4Chb7UskadEtntHp/Vrc/XVWmxzS+1PJblGdCqSC451xL8SmTLsuRawfh6+0hTU+JnXaEVznYwZJUj0rzVCXFvcrD7ZbQquUzTL2ooU9LdVLaDyIrW/qU91gxWYz+1JMVqVarGVHT3OAAAAKYJ/SIAMMU2b5W0I/6cSOdlb0tmvE8+AoV+VHK7XIFzr2x9Q8vz+VRalN3uUuIey0rPu48PGtSPu35JUNtnRY/1i62btS5ZVo8QWAypMLaDoSsfdv3aZVbcccFA98uIlQ+35J7zS4MuprIdRFXE9i/tsWbAwXMBAAAAAHCILchSsXai0z7Z2e+X7cqBfc2BwsRW6X2s24LsdkXOvbP1PZ5PEpItN7ZFp3I+a8xtteoueN8S5GwNkhQyrUF90aA+J4ijL3TtYPi0PncTr18wBrhfRqsg7s2jTIkPU9gOoipa+5f2aCOwDwAAAAAIpabxS1Q/tZlbajy3ydY3tDyfV8ZxakGK+aZRbE3usjgtQU7XsnRgXVd1IDOoX+4lqM+YLlMhkHYwdBNen9vjFziUgRmtaLSD6IrU/qU91g0W2C/kJGnVMkrm3L87bFYx7ptJJpvqHyUzOWka5B8AACCq6BcBgH7AGZ9vjc+2mZlMx8+2inl/1+dhMiM580FBBAprg+E2aTsOSuvzGU8ofp+xed06L6tSyEi8pf5O1gzqE6iaAKFrB32oVIyuTcZYD+d2GJOxnrU+i3uDfNTn7nG/KLvPZPex7Kmxf9ppfq5kzr5vxWx/zduVlIzRd2tdmpbKsu4TX3T9Akdkec65DGNbrPlu/W9DxEW2HbjWO2O/sr28dyy6TfX7Nt6HtfdE6/xW+pzt3j9dnttl4P1baXzXqU3tXk9Hu7GmTOcX3udnTRDtMbj9GRrVDlZXV61LbeTTVV2EOaXz1ky3cjWbsO7jOSWq6XzZWFRjXttFAWPQtR0AU4B2ANAvAhTHg+nm6/V3fhZan2vZsnVbE+PzMJ1w3bd5SmSz1bRrXs+fieVsNeF7GfmW52v7ed6ynbq+zg3tsCyPx0oia+wRH1oemzaeCaMUyXbQo3I23dJuWifXNrW0NY9t9r1fDMby0h37TNaUaNMGXM9ltk+Pz4Omyb1ju92/afJYj0G3IcQmuh20ee90fC3bfYa7lqX9/HLWY1s9NqZsPNbf+0+/P1gP8hTQ/m15Pdu8bz3aTbv16+mzZsD2GNz+bAhDv3jopXjcNQMT6azk83nJZ9OSMPaoSEmW5+KtP0EEAACYMPSLAEy6SkvKn1eNXmvA2GV3vl2z0uKiq4RO7wP5FXa7s/rS0jJ+rc3jp/2tg90qj18BGOu21bmh7ZalGY/uD3nN1C8ukKk/QcLWDnpRyMxIfHG5JRu2lau0VMv4FK1lrPztF20mSTMjt8uuqSkty1wy15Jl636u2cO7PbN8myzPST05W7WMk9GB69c9QWxD1EW1HbS8d+SAJLu9ll4DqBual2V09le2tf5ay+A+1hQySYkbxwp/7z/9/pAU76T/4PZvS3m5dr9oa2k33sfdnj9rBmiPwe3P8BluYL+QcXwxrQ06VFxakFQqJamFJSkWq1LOmt9iAQAAJhv9IgBTwE+NXs8BY/3oeSC/1sH12pfhEc+Bc70CR5XC7tb1d62b57K0vIM7sJhIS76HoH5LoAyhFK524J/nuA/tuAJnLdvs0dZ81fD2KlPVTWmfHHAF4dzPtbzsb8NaBsH2KbF1c2NbAtqGqItqO2h57yx2OSFkWV5pjew3L6tkvA+9ltR8rKm1w153SkkWPc4sBLd/PcrLtanB33pCp/UEwCCfNX4422OQ+zOMhhrYd57NSWT3itf4RLGFIl9iAQDAxKNfBGDytQbSvWr0tiS7S0LS+bKWiTWncjkraa+PwjZBhLZ8Z+DXtASh3BnHWgfYyvpzS+9oDs63Lqski3NzLYP45otLbU80+NJHwAPDFrJ24JexTttaIoDGOmXLUrbWqVo1LufTxlzjFmcg2yPo11r/3Md+0ZNfLe1L1yHvWAdNhEhbt9lK0jx2tUcQ0mL+WrJsLcdjEOwmqaXacxqvhfulSOcb66NTsd6xC2oboi6i7cDne0ffEy3vnuUVY6udPE4uWxL194PRpsqO7wVt26Hz/VOWvNf3BffzB7p/W8fQaPeLtgP7XHd0L6vfz5p+2mOQ+zOsjI1oq2utIGd9pdbiS476TB3qplmoJYuwCkPNLGDcaAcA/SJAcTyYbl1ffx91dZ2fb7Wp3Wdia4365hr23bXWMe5Ux7rbGCgdppYPap/L8ltX36Fl//WxDAwmau3AL//r5KV1PVubRff90tpm26xDy7Jc92tTi7t13/ncv35rixsC24aQm9R24P+94/Vau94XbZaldfa9eR87WtqSpXX/NT9/oPvX9/u1+7IG+6wx+G6Pwe5PL2HoFw8vY9+ZHTHEn8gAAACEHv0iANOgpf6tu5SNRwZnm18weWXbz7oLdnfkkTXYMbu9NRvRF62Pv9RScKRlWZqd2ZIQ2HPpDf+lEDBGoWoHPnll9qZ3eK+Tl5b19Chj5WO/7HZl1rbsl0pFKoWcZLa5S1q5+lZetbiNtrrXvUE+96+f0iI1AW5D1EWxHSi/7x0/vJaVzstSqs2yKgfEfdiq3d+67BJf7z6oOAW8f1u2pXUMDZPHZ0Hz+DMDftYYfLfHQPdneA0vsO980elsAACAaUa/CMAUaP2y7QpUFVZaBudr+sLv1BJE8AgUduQRXG8qHeLiEdjorFY2oOpVH98zSJKShR1p65qt1xq+HtvU207BCISrHfjk8TzZ7f6LRAUycG7LfjFayGJcZmZmGlM8LvE59yCmxrrubW6HLc/lcR+Tr/3ro7SILcBtiLpItgOD7/eOF1eA2XNZHdqV19gsne7fWvLNIeD92//Aua7PggE/a3ppj4HuzxAb7uC5AAAAAICp0PKl2PVluzUw0D5DtWtQqJseMzxbAwBeEpJIpCWb1zrARVlqk2LoOXCuRkBS21uz9pd3Sc5v1r5H0HBoWavoW6jagU+9rJOXlm3uY+Dc1iBod4mE1jwvtmT7tjxXm+1pfU6vLGT/J9SC3Iaoi2I7UH7fO8ZadQ0wt7aLzpnp/p9befyCyxFsD3b/+v+1WOvzNp8AGPSzppf2GOT+DDMC+wAAAACAAbV+KW7+st1LGZnWchbt79tGjxmeLQEAHdjWMRBfbSpKsbgkC6lYx3VpXZYdLIzJ5q0t9Xh8Z+23Bg3T0mEsYIxFyNqBL72sk5du26y636e13bRKJBKSSKclaw18WSwuSGtVE4/navNrndbAn0cgr4eThMFtQ9R1e717ec+Nqh0o/+8d49XuEmDu/p5v1ss+Ua3P37h/0PvXZzDdq8xO07J63UYPvttjkPsz3IYX2I+vN7pOltUjxi4FAACYUvSLAEw6j1q2/WaTV3K7WjLTOwdE/GhTD9jkEQDoO1Ov87JiCzvEXZDHX9a+R3aoR1Y0xiz07WAYWgNiLdvcdb94tJt03nViTYPgRSkuLcnCQqp9wM33a9D6nJ5B3JaThO1OqAW4DVEX1XbQw3q3rpe7lnyv+8AjsNyB135J93Gm19f+bQmme5f1Kex2jRthCPy18t0ex7M/x2F4gf3YOqPrZCkdNnYpAADAlKJfBGDS9Zgh306lkJG4O3vQ0GtQqLeSGEFm6rUuqzlYmJLtraPods/a9wgShTPIO+VC1g788Xj/t0tCqOQkk8xI07vVo5Z3yzYHtF988f1crdvttX+7lRaBh0i2A4Pv9fbIcneXeQliH3Roh9tanj8rPZWqN/jevy3b0qqSS8qcOzJubHPzCYABP2sMA7XHIe/PcRliKZ64NAYUXpZdHVIQvN8AAAAAk4J+EYDJ1hpI75Qhb9FM9YL1eVipSCGTlLjnB2AAQcBOX/49ftrfd6aejzIBsc1bjS1y6ZK171W3v+1AiBib0LcDT84+iqW0KNtyBUcQzFivXEaScfegr/62ud/9krH3S13F2EWF2rokZ2Qm03pCzPdz+Tkh4UUTNOzVMtbFeMna63Mboi6a7cBrvUuyGE82vYaVQk6SM3Ot2d07ugzg3LWWfJt2aLw/HM9ufE+otUN3fNz9/C0G2L9e+2XfAdeyPE4QtL7ug33WeGrbHoe8P8Ok2sHq6qp1qY18uqqLMKd03prZUM4mGrdLopotWzfUlav5pvvUJo9FAWPTtR0AU4B2ANAvAhTHg+nW6fXPp5s/u7w+B1vu43dKZI1PyN40f+Z2XkbLfT0/o/3xuyyvfZFo+6Tlajbhuj8Hh7GJUjvwq6d1cq1HX9vscZ/WtuNj6vO5VOvzpasea9Xa9lyTs90GtQ1RMPXtwDkN8D506uv9o9OQ92/f6+WxrJ7Wq+XxI2iPOvXQJsPQLx7q4Lmxhb2OUf9rZ7qSmZwUCvbZybjMWWd10umWSoMAAAATg34RgMnlUavaI6UytT0r7gQ6L+lsuvl+Qx7Arv1gt73zuyyvfVFa3N1SdsDkUYYnKrV/p0t024HfdVLNpaX8bLO//eL5S5Yu+n0u5WvgXGNL19VrKXpz/iInmG2Iuqi2g4K4q7z4k5b8kvvz2P/70MlzDJZuElkptzx/sPvX7/taB4Xutqz+P2tUj+0xwP0ZZkMN7OtOXyjmJV1/1UpSWl6Uubk544vrspTMz9GEZMtVWZo37wAAADCh6BcBmFB+BwmMLciOjt+yE5LOl2VpnX5CNgw38NUagPEO8PnRw7Jim2VrS3TDu1Rby4CEEar9O1Wi3A6MddrbyD5oz3jv7V1wbJOfbe5hvxTzrsBgJ4m07HCui/L7XF6BV6+Bcw2dA5GugTuD2Iaoi2o78CrJ5g5Uu2kQuLrUOoi57/ehW0qWyn4D38b+yZalWmxTMibI/etzWUXj+4tzWZ4noI1l9fVZY+mpPQa5P0NswMD++voOMvorbRg7sliWvJ4FatqbutPyRiMoSvNrNbx6WQAAAMNDvwgATAnjy3Wbz67UUlXKGvhyfgYaV+zPwKVUTJpD2/3Vko91S+urax3OvF2Ar7telhWThR2tAYfZddaFutYs0v7XDyMVgnbQi9hCUarlvGTTCdf70riezkq+7CPo1WGb6zrdJ7UkxardT3K3Dt1Fxj7Sdcnruiy1BlTd2j6Xu60m2gdeNVhv7Je0a30SxrKzZY91CHoboi4q7cBrsNvtxmvZ7rU3Xz+fQeBO73k3fb8Z759yPtvyvMp8bnv/dDkpFOT+TS15fH/puKx02+8wA33W9NoeA9yfYTWj9Xisyy0OHTokGzZssK4B04l2ANAOAEU7AGgH0y5Sr38hIzPOgQE1szKCmXg6oHrzoIRpyXtliGJk+BwEJq8d8FmLfoShHQy5FA8AAAAAACMWb/yKylQ67JFPH3YF2d0UaNLzE9sJNAFAwFrGXEjP81mLSCCwDwAAAACYLC017FflSHOdgNCr5HZJUxWeNjWHMUUqOUnOzMjMgFPSYywHIDICbwceJc+ohYmIILAPAAAAAJgwMWkus1+Sw5FK2W/N1k/viF4pIQSrcmCfqw44MH0CbwceA+f6G+wWGD8C+wAAAACAiRNf3zxQ3mqEUvYLmbnmbP10XpaoCzHlKnJgXzDhTIKWiK4htAOvgXNJ2EdEENgHAAAAAEyc2OatkrYuq9l11oXQc5WFSGQlT1QfgUnLPG8nTL1GO2g55ZvYKps594WIILAPAAAAAJg8sQVZqlalak1LqahEalJN610tLjCIIwwxWSg63hd9T0u8nxBhwbeDWGqp+TbjM5e4PqKCwD4AAAAAAAAAABFCYB8AAAAAAAAAgAghsA8AAAAAAAAAQITMrK6uVq3LAAAAAAAAAAAg5GaqOjJEG4cOHZINGzZY14DpRDsAaAeAoh0AtINpx+sP0A4ARTsAwtEOKMUDAAAAAAAAAECEENgHAAAAAAAAACBCCOwDAAAAAAAAABAhBPYBAAAAAAAAAIgQAvsAAAAAAAAAAEQIgX0AAAAAAAAAACKEwD4AAAAAAAAAABFCYB8AAAAAAAAAgAghsA8AAAAAAAAAQIQQ2AcAAAAAAAAAIEII7AMAAAAAAAAAECFTFNivSKVQkIIxVaw5AAAAAAAA04k4CaKC9yrgJbDAfiWXlJmZGXNK5sLXzCq5bRKfm5M5Y4onc3wQAACAkXD2kWZmkpIpWDcAAIAxqEhhRPEL4iSYOoVM/T0/0897qpKTpMfjea8C3qYmY798uGRdMpQOS9m6CAAAMDwVObDP0QeRkiyvENkHAGAsKgXJJOMyt+g8Nk8v4iQIXHy9JKyLUtonB3qMwFcO7DN6yzWJrZslZl3mvQp4m5rAfmo+Xf9wSaTnJWVdBgAAGJrCbmmJHSzvkhAm7QEAMNEqhYwk43OyTEy/jjgJAhfbLFsbkX3Z11Nk35kQk5Ctm+2wPu9VoJ3pqbGfWpJitSpVYyou8REAAACGr7CybF1KSzptfx3p9UsOAADoX0VyyRmJzy1bmcAJSSTqkcfpRpwEgYvJ5kZkX0r7Dvgvm1M5II24/lZxxPV5rwJtTNHguQAAAKNUkEZcf16Wtm+tZxr19CUHAAD0SYP68cav5xJpyZeLsnerdR1A4GKbG33eXsrxtCvDA6A9AvsAAADDUFiRRlw/1fzT5D5qjgIAgF6VpVaaOyHpbFmqxSVJES0Ehiu2IDvS1mXfv1RtX4YHQHvjCexXdBT6jCST1kjX1pRMZiRX8Pctt1LISSbZGGHenIzryUxOPBdh3N8eWTuZ6zJoXaUguYyxrJZlF3TV26rYj3Ntlz42Yzwn398BAJgezjI8Gtdv/mmyzy85hUy9P2F0Q0xmjWBHX8Psn9RuqunnMU3sfloP/SxbpdHf6jwlGWcAADACcZnPZs0s/aWFkAcKiZNggmhNfJuvX6p2KsOjur1XPfq/Zptqec/6b081A/SLgVGodrC6umpd6q6cTVR1cTolsmVrbqtyNl01vtLW7+s5JbLVDkuoZhMej3FOXo/Ppxu3p/PWTLeycbfGdnhPiWravX3lbDXdbZ3MKVHtsGsQUr20A2BS0Q6AXttBvmp8nakd/539DqPPUO8HdezvWBz9F12Ms7/VmNLGszn08xhL2Xhs136aMSWMBXuuu3P7ukxtu2MINY4H043XH5PCb/zCSy/tgDiJ133dE3GSKOreDhx9YR+vcde20u296u7/dunTal+2m4H7xZh4YegXjTRjv5JLSnyxMWBNOpuXcrlcm/JZaYwptyjxZM7zjF4h06iPl0jrmXfr8caUN5dhL6R3uuw5xxD5uvxsPm8uN+sY8G55cbc4zw8Wdi86RtY3tkvXy3xcXrLZxsjd+tjFeKbpsQAAYPJUcruay/DYmsrxLMruXjoFKxmjH2V3grS/ka71nRLrJV6b26qHx5j9tPrAgoaEcV+jr2b2abLNfazS8pzE6+lQDrEF2Wv1gVqnrKNPlJD1bVcaAIDpQZyEOMlkSkkjab/bL1WdZXjSsmPAX9es7nL0aY3+bNbsz7b2ZZMdfj4aSL8YGAUrwO8p0DPRTRlc3lliKp92nPVqWY7jjJ+fLDenHs7uGS3W+2xiOW+dBW9ef3PbE8a8crs1aj577uPEIEKEzCSAdgAo/+3Aedxv7fM4+0zts+MsTf2T2tQ1s7Cfx7gy7dN57/u7M5d66dP0tN0ILY4H043XH5Oia/yig17aAXES4iSTylc7cL5/Or03ne2g3Ruhp/dqbfJqc0390XbrNIJ+MSZDGPpFI8vY17O19fNv+SVx5K41SW1vZHO11OGqHJFV66LMrgtwhOyK5HbZeXW6fkXxPEEYS8lCUc96b29a/9hC0RqEp90axWShMXKIrB7pdKYSAADU/eAHtSlKnDVC0/MtfZ7Y5q2NLLXlld4y1NJ5KfaaxeTjMc5+mvElSJbajCwYSy3JXuNbuG15l3fmYItKTrbZqYSSlvxSu54gAADTgzgJcZKJlpo3en2W0j5pl7RfObCv0Q6cv3QdQDpf9uz/xhZ2dF2nofeLgQCNKLBfkPr4cYmsbO/UTpt+on5YytbFFqtHAmww9kj5yh7grp2YxNoemPwpHW67VQAAwOnZZ0U++EGRmRmRLVtEdu4U+dnPrBvDqeuXE2dfR5ZlxW9k3+hDlXsNiPt6jKOf5uPnz36+ELn5DVwAADA9iJM4ESeZRH7K8TSX4Qkkrp/Otw3Gu9ep9W03/H4xEKTRBPabziAbU6Vi/Gs3iazT+5hWpemkrasubbzn0azbKKzU6+B2rFPbo6btsuaN08HKc/Ktu35hXQMAIAI+8AHrgmFlReTmm0Xe9a5GoD+brQX/Q8PPl5OYbG5E9mXZb2S/nyw8P49x9tN89YPisr6++l5fiFwKGZmzO1rmFy3rMgAA04w4SSjiJBiuVCOK3vprE9Xll64jN+x+MRCw0QT2y4frWVqybBxo4vGOU/3LX4uYLBTzjrNhy7I4Fze+2yclkysEc1AY4KdrlUpBMsmksT4z5tS0Xe03amT23/8r+fbdv5SrbizKztseMQP9AACE2lln1SYvGuj/1KdEzj5b5G1vq13WeePk88vJQOV4gubsp/nqB8UcwYVujL5RvQ+UkGzHdEQAAKYIcZJQxEkwZF3K8QyjDM9AhtovBoI3shr7fUnMyrqWVpSSpWpZ8vXR15WOwD4nceMgkcz0fuCqHKmfj+tTRXJJPUDNyXKp/hEQKi+8/JocPNoI5BdXn5abvr4qf/Hln5hZ/E+ceMW6BQCAkHnnO60LHTz2WC17X7P4jf5AvWzPiOvzN9XklCNSKBS8p7LxXaER2ZdduUC+dvdl8H5Qe4WM0TeyLieye71r8wIAAP+IkyBSUrK9XofeXY5nCGV4BjTMfjEwDKMP7KfzUq1W/U060Ir1sGYxSS0VjfsYB65sWhKOY1dp2ThwJXsbsCI24Om1QiYu9fHgjK/xOkhH2b0t+cbPj8bhuz88bgb33Z488aqZxf/xLz9kZvHf9eCT1i0AAISEn8C+m122Z6T1+Z01ObVPsihzc3NtpkXjS651R4PnT5NHZNB+UFuVnNTH3EtkZS9RfQAAvBEnwQRz/lK1qc8btjI8hqH1i4EhGU1gP76+3oiDHczFOHAtLEmxWJWycUCoP0dpUXb3+5v2XtfP+aVV0pKvFs1BOsL21bV06IR1qT3N4t/z9xXZsuPH8vU7HyWLHwAQDldeaV0YgLM+v5bu0bI9Qdfmd9ai7VVYBtvy1Q+qSCOZKSHrPYuPViS3zTFg7o6F0PWNAAAYK+IkmBZN40A0+ryhK8PjFli/GBie0QT2Y+vMsWBMnUZwH0AsZRy4HGd7fQ9Ep5wH1F7Xz1l/KyRnGN00YH/08Reta91pZr9m+JPFDwAYGw26axkdLa9z553WzIDoLwAWFtrX7u9TwZGun867MtI8p7LUf5nc8tPkEeq1H+TMrjJ6eK3lAPT7/LZGlh4D5gIA0Io4CaZGTDY3IvtWnzd8ZXhMQ+gXA8MUWGC/fLj+TvbgHCV6vHVkPTnPHhrr1+1Yp6O3R0lptXu2fjt2Fr8OuEsWPwBgKJxB/Ouuq2XV62C4WkZHM+tvv926YwAWF0X27xe5+GJrRlCcZXj8fjlxfskxjtfjKsfj6gd166c5s6s8v6xXcrKtEdWXPFF9AMCUIk4C1DSV41ncLQVHQDyR3R6ekz9B94uBIesrsF/I5YxGaF0xNdeUnW05RRWThR2Ns8SlxW2SaV5ACx053X2XSi4pyYz7uRucmXKJnn7/0vzFenkuKZ5t11in2uAvxoeQNavpbN7ySmO+Q6WQkZkxjva+/aNx2XndJXL15edac/pjZ/Hf9LerZPEDAPqjQXytc69BfA3aewXx9fagy+Rodv5tt4l87WuBZ+qbnGV4eujUxxZ2SL2HNLZyPP77adqnideD9gnJbm/dUucAwul8uzrAAABMFuIk0YqTYMTcAfNtdkA8IVs3hynNPdh+MTBsfQT2K3Jk36LMxXVk9YxkjCk5M9f4MtsuSy21JI1fgJWMg0JcZpLG43PGgalgTTnjejIpMzO1kdN3eXy7NQeiM55bH5uzH2s+bkYax4S07OhxgLbYwt6mn8MvmtuXk5y5bsbfjLFexjo1Bn+xuD6c5nS9jEavZ6v1oKuPi4fgYJWcPccM8N9zS1I+8ZG3yXlrTrZu6d3Bo8+RxQ8A6M4O4muw3hnE1796XYP7wwjiu2npnXvvFbn2WmtG8JrK8PT0W+KUzDv6R4t9F78dkEc/LenR13L2aRLZvdLS3TK+4NTvkkjLeuOrfL2f557aBCAAAAiUBsNdx6ADh63b1OEDLbf3fogiTtIkInESjJLrl6ol602T2CqhiuuroPrFwChUO1hdXbUuOZWrxgd7VR/qNaXz1t08lav5dMLzcV5TIlu2HmfJp6vGx4DnfRtToup+mMl4bP0+bVcyX0132LbalKim3U9QznZdr0Q239hvnXfSyPys/Gz1K3ccqf77T/+3gacbb324+r0HnrCWPFm82wEwXWgH6OqZZ6rVn/60Wt2/v1pdXKxW3/nOavWss6rGgW+80wc+UFu3ALRtB039gLTRm+iRs4/ifryv/otLP48x+e2nGX2hvFdnS3eF/36e8Q3IeEZEDceD6cbrj+jpHL9oN3U6fHq3A+IkkxIngT99HQ883hMt7+d2ur1Xe+j/5tPW/Yyp/V0H7xdj8oWhX9RHxn5MFoplMd7gjZ9WGRKJtBjv5S6Do8UktVSUajkvWX28cwEmnZeWdDZrLqvoPt2lA79UjefOplsemzBmpLN5KVeLbc6SNX4KllhvXWiRkiVz5PispFufoLb8clGW3E8QW2izXsb2pO1tafzkrf3zj9bG2JlDy+I/WHnOugUAMJE0035lRWTnzuZM/C1bRpeJ34mW29GyO5qpP4zSO06OAeIS/dTWTM03yvHIqhxpSsTz039x6+cxqnM/zdnXWkp5pyTF1tWHAexudp3xjAAAhE1CeqpYYyJOMilxEgyR8Z5wVLkx9FKGp9t7tYf+b2Nwiw4G7xcDozCj0X3rcotDhw7Jhg0brGuYBhqQv/snT8ndDz5lzenf2gtPl6vffa78+Z9eYM2JJtoBQDuYehqkf+yx2t8776xdHmfQvhu7nv78vDUjGLQDgHYw7Xj9AdoBoGgHQDjaQV+D52JyubP4N64907qld0cff9HM3tcs/p23PUIWPwBEgQbs7Ux8HdD27LMbmfg33zzaTHwN0Gtw/gtfqGXea638bj7wAZGf/jTwoD4AAAAAAGFCYB9taab9nk/Oyjc+/c6Bs+6Lq0/LTV9flb/66s/kW3f9Ql54+TXrFgDA2HgF8XWyg/g/+MFog/galLeD+I8+KvLMMyL799fWT2/TqZPFxdr9L77YmgEAAAAAwGQisI+utKSOZu9rFv/O6y4ZOIv/23f/Urbs+LGZxX/Xg09atwAAhkoD9Bqot4P4WhN/3EF8DcRrEF8z7DWIr5ftIL5XcP7KK60LLro8raevk14GAAAAAGDCUWMffdEAvWbh77//VwNn3+ugvcnZc2TLFW+R89ecYs0ND9oBQDuIHA3Qa8kcuya+fX0cNNCuJXR02rixcbkfuh16MsJJTwBoPf1u2fwBoB0AtINpx+sP0A4ARTsAwtEOCOxjYBrgL62eCGTAXQ3wv3/2bNl0+XnWnPGjHQC0g1BzBvEPHmxcHgevIL4G3oPMotfAvv3LAg3ma+mdEWXp0w4A2sG04/UHaAeAoh0A4WgHBPYRmCdOvGIG+L97/3F58sSr1tz+aV3/MGTx0w4A2kFoeAXxH3usEegeJQ2ma9Beg+sXXdQonzPsILuWEdKyQVrGR+vxjyior2gHAO1g2vH6A7QDQNEOgHC0AwL7GIpJyuKnHQC0g7HQYL0G7TWIfexY7e+0BfG9ZLO1556ft2aMDu0AoB1MO15/gHYAKNoBEI52QGAfQ/fdHx6PdBY/7QCgHQxdGIP4OulgteMM4ocM7QCgHUw7Xn+AdgAo2gEQjnZAYB8jE2QW/8a1Z8pVl795JFn8tAOAdhAoO4iv0333jTeIr+w6+FoTX7PgCeK3RTsAaAfT7N/dtMm6BED98567rEvA9KE/AISjHcysrq62DewDw3LfoVflvsOvyonn/82a078rN5ws74n9gVx4zuutOQAQHqc88oi84fHH5dR/+id54z/8g3n59c8/b906Wq9ccon87sIL5ZW3v13+9c/+zLz8+ze+0boVAID2/ufbPm1dAqD+63VftS4BADAeZOxjrA5WnpO7f/JUIFn8ay88Xa5+97lmuZ4g0Q4A2oFv9mC2+vfOO8ebia+Z95qNr5n4Wk5HL5OJPxDaAUA7mGZ2xj5Zyph2tAWA/gCgwtAOXmf9BcZiY+xM2f7RuNxzS1I+8ZG3mcH5fh19/EX5+p2PylU3Fs2/etIAAIZGg/YrKyI7d4p88IMiZ58t8q53iWzZInLzzbXg/qiC+hqw1zI6X/iCyL33ijzzjMijj4rs319bPw3sE9QHAAAAAGBiENhHaGim/Tc+/U5zGjTrXgfsvenrq/JXX/2ZfOuuX8gLL79m3QIAfdAAvTuI/7a3NYL4Wid/lEF8DdTbQXwN4GsgnyD+QF7+3Qty4qUn5fFnj8rDx0vywLF7rFsAAAAAAAgfSvEg1DRArwPuHjw6ePZ9cvYc2XLFW8xfCfSCdgBMWTvQAL1m22uwXge31cx8ncZBA/RaQkenj3ykcR2+aLD+5d+9KC//tha010k989JTTddPvPikeV+nK2NbZP4dGetaDccDgHYwzSg/AtTQFgD6A4AKQzsgsI9I0DI7xdWnZf/9vxo4+/68NSfXg/znrznFmtse7QCY4HZgB/Htmvj29XFwBvGvvLJRIx9taTD+4eP/3fxrB+vtYL5XsN6vNaedJzd96FY59Q1nWHNqOB4AtINpRjATqKEtAPQHABWGdkBgH5FjBvh/+KvAsvjfP3u2bLr8PGtOK9oBMCHtwBnEtzPxwxDE18Ft9a8G8imh07Nv/uiLZumcIF1z2Y3ynouusq41cDwAaAfTjGAmUENbAOgPACoM7YAa+4gcDcbv+eSsfPuzl5kD7moGfr/0JMGev6/Ilh0/NgfcfeLEK9YtACJNg/haSiebFbnuutqgtloTX+vjf+pTtXr5owrqa7Be694vLop87WsiP/1prS6+1sfX69deWwvsE9TvyzWXfdq6FIxLL0h4BvUBAAAAAAgTAvuILC2jo4Ps/t1n3y07r7tErr78XOuW3ml5H63n//EvPyQ7b3tE7nqwVncZQAQ4g/gatHcH8W+/vRbE1/sNm52J3y6Ir/MJ4gdKy+W4a+H3S5e16ZKPWdcAAAAAAAgvSvFgomiA/u4Hn5Lv3n9cnjzxqjW3f3riYMN5z8ufvu8d1hxgOoXmeKDBeS2ho4H8Y8dqf/X6KIL2bhqct+vgazkdzcqnnM7Y7PmHG+TxZ49a1/qjQf0Pr/+4da0V/SKAdjDNKD8C1NAWAPoDgApDOyBjHxPljFNPCiyLX2kW/5f+0/Ny09+uksUPjJoG6zXTXjPunZn4+leva4b+qDPx5+ebM/H17223kYkfAtf8T4OV5NEBc6+Mb7GuAQAAAAAQbgT2MbG0Fv/2j8blnluSA9fi14F6tRb/VTcWzVr8Rx9/0boFQCDsIL7WvncH8bVG/iiD+MoO4n/hC81B/P37CeKH1IVnrTXr4/dLB8zVUjwAAAAAAEQBgX1MBTuLf88nZgPJ4v+rr/6MLH5gEHYQf+fO5iD+li2jD+Jr+Rw7iK+18J95phHE1/UjiB96WoLn1vs/Iw8fL1lzenNlbIvE3kzJNQAAAABAdFBjH1NLA/R3/+SpQLLv9cRBYsMa2Rg705oDTJaBjgdaA18D9Trdd99og/ZuGqDXWvh2TXyC9pH28u9ekLv+8TvywLF7zMv90Cz9z334dl/Z+vSLANrBNKOuOFBDWwDoDwAqDO2AjH1MLQ3Gf+PT7wwsi/+mr6+amfzfuusX1lxgCmnA3s7E/+AHRc4+u5aNr5n4N99cG+x2VEF9Ddi7M/F1sjPxNbBPUD+yKr/+uez5/g1yX2V/30F9telPPkYJHgAAJl2lIoVcRpLJpMzMzDQm43omV9Cbh6KSazxfMjekJwEixNkmZmaM9lewbgDQFwL7mHqaZe+sxb9xbf9Z95r9/+27f2nW4t952yNysPKcdQswgbyC+DqNK4ivgXo7iK+ldAjiTyQN4t/x0C1m6Z0TLw1WDk3L72gZHgAAMKkqksskZSYel7nFZSmVXGX7jOvLi3MSjxNgBIavIgf2Odug0f5WaHjAIAjsAw6axb/nk7NmJr9eHkRx9Wkzi/8vvvwTM4v/iROvWLcA0fP655+vBertIL7Wwx93EF8HsdXAvR3E14C+HcTXEjuYKBrQ15I7X/retebfQWmW/qZL/sK6BgAAJlElt00WlxuBxEQiLel0bWoecr8ky3NJIakeGKLCbll0D4m1vIt2BwyAwD7gYe2Fp5vZ+5rFf/2HThsoi//JE6+aWfwf//JDZhY/A+4i9DRAr4F6HcRWA/fvepdc8v731wL6dhBf6+SPgjOIf9tttSD+o4/Wgvhf+1qt1A5B/ImnZXduvf+vzUx9v2V3NHDfqcTOey66igFzAQCYBom0ZPNl0eEFi8UlWVqqTUXjejmftu6kSrK4LSfEGIHhKKwsW5f05Jp9aq0k+w7Q6oB+EdgHunjHRX9gZvF/+7OXycevfquccepJ1i290yz+PX9fkS07fixfv/NRsvgxfs4g/nXX1TLxtSa+BvE/9alaqZ2wBPGvvZbBbqeMBvFXfr4k3/zRF+XxZ49ac7vToL0OiHv9+z5vzWm25rTzzNr6AABgssUWilItLslCKmbNaRZLLUlzbP+wlK2LAIJUkEZcf16Wtm+t/2qmtO8AJ9SAPhHYB3w6f80p8peb/lj273qv7LzukoEG3H3h5dfMAXfJ4sdIdQvi3357LYg/ipI6GpzXIL0G8TVoTxAfLv0MjnvhWWvlhiu+ItdcdqOZra8Z+Zde0PxDe7XpT/6CAXMBAIApNe+M7K/KESKMQPAKK9KI66dEYptlayOyLyTtA/0hsA/0ITl7jjngrmbxa8me89acbN3SOzuLXwfcJYsfgdHgvAbpNYivQfswBPE1WO8M4utfva7BfYL4sGhmvmbo9zI4rgbp59+RkRuu+JuW8jrXXPZp61KNBvo1ox8AAMAUX++qtz8uFSnkMpJMJmVmZqYxGdeTmZwUugU+C5n6Y+yBgCvGvGSysaykcYPnYirGc2eM53Hct+2U7FCuSJdjbkPzY5LJjOS6bgAmmbMMj8b1RWKyuRHZ91eOp5/3+CDtwjRAu6zkJOl8TNuJ8T3QPwL7wAA0i18H2f27z7574Cx+ZWfx3/S3q2Txwz87iK/BemcQX//qdQ3ujzqIr7Xv3UF8La9DEB9t2GV3tJb+w8fdo2q1p4H8mz50q1wZ2+KZha/zNIPfvrzpEkrwAAAAh/Jh8d/zGA4z0DgTl7nFZSmVXGtjXC8tL8pcvFsAslkll5T4nC7PmmEoLa+0lhrS544bz71sPM8AO6KiwU9djrkN1kxLqbQsi3PxzicFMMGay/CYcX1DbPNg5Xh8v8cdennMMNqlt5IcpgYY+kRgHwiIncWvA+4OmsV/8OhzZPHDmx3E19r37iC+ltcZZRBf2UH8L3yhOYi/fz9BfPhmD47bS9kdO2CvpXe0Zn4nmqGvZXr+dO1HzL8AAAC2ypFV65IhsVU2e5fjH5p6oNG6roP9prN5yeeNyejbpxON3xOUluckbqcdd7KSkfiitUTj8em0sUxdTGK9xGtzazSjuP7cxv2M5y2Xy+aUz6abfslQX6cdm8W9i8xt0OCnea15OeW8boN5g7EBixInuD91KrldzWV4bE3leBZlt4+3dp3f97hTD48JpF3GFmSv3t9zyjraV0LWt11poLOZqg4N38ahQ4dkw4YN1jVgOg3SDrTMTmn1hNz94FPWnP5tXHumXHX5m2XT5Z0DWJgwGqR/7LHa3zvvrF0eVdDeTYP0F19svBk31oL5epmgPQagQfy7/vE78sCxe3oK6F96wfvN0jteGfrtaFmfU99wek+PcaNfBNAOptm/u2mT+fef99xl/gUmQ0VyybjUY33ZshQXOkf2e2kLtYC3Fe72WrYG1uOL9eBhOl+WJY+BfjVzeJsjyJjOV437WVdsxn1mjPs4ddueQmZG7Id0XWY6L9WWOxiatiEt+epSPSPbyflcfvYzws1/f8DZxlrfH8420vY9ZuvjPd7XY4Jsl230tN0IrTD0i8nYB4ZomFn8ByvPWbdgYtiZ+Dt31jLwzz679nfLFpGbbx5tJr4G7O1M/HvvlUf++39vZOLr+pGJjwFpuZ1eB8fVsjtaR98eHLcXmtU/SFAfAABMoMLuelBfJCFbR5yuX9jdCB5qsNEreKhiqSXZm23k9y7v8pH1ns53CZ47yqMksrLdK66Y2i71p11eMR7RyrkN6bx3UF+ltjcylPspu4KIqhyQffU3SKMMj81Zjqfde6ytru9xDz4eM9R2qSo52Vb/4ElLnqA+BkBgHxgRuxb/nk/MBlKL/6avr8pfffVn5mVEkAbo7SC+DmgboiC+PPNMbbKD+B/4gPz+jW+07gwMxh4cV6deB8e9/n2fp5QOAAAISEEyjkzeRHav9BojHIwjsC5p2dHlyWMLO4x7WUr7pONYo4mslLsFCytHpF6EaHZdS3mdmpism7UuGvc+0vKcPk4O2JrKrhzuWAcdk6NyYF/jxI+zDI/N+b6QZVnxG9n38x538/WYIbZLi9+TYYAfBPaBEdsYO7Mpi3/thadbt/Tu6OMvmtn7msW/87ZHyOIPK68gvk52EP8HPxhtEP8DH2gE8bUmviuITyY+hmFYg+MCAAD0o5CZq9f91oDf3tFG9ZsD653qgtfFZX09ANplsM22gfqANZ0cMKZKxfjXbpIuJwkweSpyoJGuL15xfT15tLkR2Zdlv5H9ft7jfh4zzHapCpl6SSr99QDJ+hgUgX1gjDSL/xuffqc56eVBaD1/O4v/W3f9Ql54+TXrFoyUBug1UG8H8XVg23EH8XUQWw3iaykdDeLrZTuIr3XygSHrZ3BczczXDH0/g+MCAAD0QutbN5L105IvLowmEO5UPlzP2vUXpHRmzwcgts6MxZtWj7QpIVKRxtjCs7LOvZLObVhelHg83nFylTrHpOtShsc2UDmeoA21XTp/JZSQbMefuAD+ENgHQkCz9jV7387i14Fy+6VZ/N+++5eyZcePzSz+ux70V+oCfbCD+NlsLYhv18XXy3YQXwe7HQVnEP+225qD+F/7Wu02rYsPjFAjS/8zZgkeP+yyO1pL/9ILGtk7AAAAQWgatFKDa+XxlMKoNCLmY5KSebuGSGlRdnsX0G+MQdAhMNuzhMdJAkycplr1ckQKhYL3VBaZbUT2ZVdufD/nGGa7dP5KaPSlvzCpCOwDIaOZ+3s+OWtm8X/86rfKGaeeZN3SO83i1wF3/+LLPzFL9jxx4hXrFvTMGcS/7rrmIP6nPlW7Tevij4JXEF9L6thB/GuvJYiPsXvg2D3ype9da2bp+2UPjkvZHQAAMAzuoH46XxxbcC0WaPp9f5wD2i7PJSWTK9RL5xRyGUn2kl2czku1WvU3FakrPvmctepFSsuLMjc312ZalOV6mryWqh/f4MpDa5eVnOxqRPVHX/oLE4vAPhBSmsX/l5v+WPbveq/svO6SgbL4nzzxqjnI7se//BBZ/H54BfG1pI4dxL/99tEG8TVIr0F8Ddq3C+JTFx8hoWV39vzDDXLHQ7f4LrvD4LgAAGDoChlHUF/j0MXw1LduWwrHyVkWJyHruxf/7sqZUa31wZcX5xplcxaXrdv0BEib7OL4+vqJAX/bgKlRWGmMYdErn4PQDl1g7bIiuW2OAXN3jKH0FyYWgX0gApKz55hZ/N/+7GVmqZ7z1pxs3dI7O4tfB9wli9+gQXwN0msQX4P27YL4o6iL3y6Ir3/1us4niI+QssvufPNHX/Rddke956KrGBwXAAAMV8GZfa5B/er4g/rOoHjpsHQbc7OpXrlXvfteOQbxTGTzks+mJdFUBTEhiXRW8mU9AdLmyZx1+v1sA6ZGwZGur+3N85cbTVNZso0GIfvGFdkfQrus5LY5SloxYC6CRWAfiJDz15xilur5u8++28ziv/ryc61b+jN1Wfztgvj6V6/r/FEH8efnCeIj8sws/e/f0NfguNdcdiOD4wIAgOGp5Mygvh1XS2TLIwuslQ/XI36tYptlaz2C2L2ueOXAvvo2BFHvvlFLPCFbN6cktbAkxaIz0FqU4tKCtIvp18RlfQ/bgGnhLMOTlnlfb9aYbG40iPGV4wm6XRqfP9saUX3JE9VHwAjsAxGlWfzbPxqvD7hLFr+LHcRfWQlXEP8LX2gO4u/fTxAfkaVBfC25o4PjnnjJ38lBBscFAAAjUylIJu4YwDNbluKQalsXcjkpNMUAm2uMz7ak8sZkYYc9eq1IaXGbZJoXUFdpKiPko969D41a4podXegziOp/G2wV4zXpchdEnbMMTw8noWILO6T+bhpbOZ5g26Wz3FU6z9gSCN5MVU/FtnHo0CHZsGGDdQ2YTlFqBxqgL62ekLsffMqa0z+t6X/V5W+WTZdHIJNWg/OPPVabNFh/5521y6MI2nvRIP3FFxs7cWMtmK+XIx6053gAJw3o6+C4d/3jd3xn6CsdHHf+0kxk6+jTDgDawTT7dzdtMv/+8567zL9A+FUkl4w3SmBIQtJpPwNjzsv2pVTbGtjebaHxXIl02ixPs7rc+JWAmalb9Q7qFTIz9ZI4KpFIy9at87JunXHlyIqs7FtuGli07cmJQkZm7AXpQLY+MoMruYxsq9fSb5Zw1OWZ3bpDtm829kmbneLeBmMnSNrYhnndBmVux6qxHbVnGuYJFoxGp/6A8/3Qa9mrpveS+33cx3u8r8cYAmmXzuc2Hp/dYTy+dq1VPNXl1zEIozD0iwnsA11EtR1omZ3v3n/cHDh3UFr+5+p3n2sO6BsKGrwPSxBfg/YayNcg/gc+MLGZ9xwPYNOyOysPL/VUR1+z9Df9ycfMOvpRRjsAaAfTjMA+oqcgmZm5PgbwTEi2XPQeLNbQLbDvpXNwsyKFzDaZc0YJPdUGsW1b776vwH6yaUDhbtoH5P1uQw2B/ehr2x/Q0lf1X8m0P6HVlvN97H78CAP7QbTLntpXIivlIoPqRk0Y+sWU4gEmlF2Lf88nZgOpxf9XX/2ZOenlkdKgvZbT2bmzNqDt2WfXyuls2SJy882jK6ejNGBvl9O5916RZ56pldTRcjq6fhrYp5wOJtQgg+N+7sO3Rz6oDwAAosZZ/33YYrJQLEs+nRDnU2qWb77cLWM5JqmlolTLecnq413rrJnz6WxeytUOg9iaGoN+JtZbFzopOMuIaFwxL/l8Y8qm05I2Juf6lBbjkilYV5p03gZj6ea+SGd1MN4qQf1JVj5c/wVIop+xIFLzjXI8sipHmqrg9PgeN/XzGDV4u2yUu/Jhdh1BffSFjH2gi0lqBxqUv/snT8nRx1+05vRPTxwkNqyRjbEzrTkB0AD9D35QC9bfd99og/ZuGqDX7Psrr6wF7DUzX6cpxfFgummWvtbS91tHX0W97I4X2gFAO5hmZOwDNZPRFpp/YdCtXEpT5nFPWc+YVPQHgHC0AzL2gSmiwfhvfPqdgWXx3/T1VTOL/1t3/UJeePk16xaf7CC+nYmvA9tqNr6dia+3jTITX4P3OoitZuLroLaaja+X7Uz8KQ7qY3ppZr5m6PczOO717/v8RAX1AQAAJkdZDtfTqrPSbSze2OatTb9EAACEA4F9YApplv32j8blnluS8omPvM0cKLdfmv3/7bt/KVt2/Fh23vaIHKw8Z93iYAfxs9laEF9L6WgQXy/bQXwtuTMKziC+ltBxBvG/9rXabZqpD0wxu+zOrff/tTx8vPET7W40S/+mD91qlt3RAD8AAABCrnRYytbFdgq79zXKq6yPW5cAAONGKR6gi2lpBxqgL64+bQbpB3HGqy/Iu195TD4gj8u7f/UzOfm4sTwtqTMOdjkde3Bb/auZ99TB7xnHg+nR7+C4mqWv9fQnGe0AoB1MM0rxADWT0hYKmRmpj1Gq9cK37pD5zXFxhu3LBw7Iyr5FaYwf2sdgqJhI9AeAcLQDAvtAF9PYDjTAv/+Hv5KDRz2y7x00iL/212VZ+5Qx/bpi/j3vX39lzh85ZxD/oosa5XMI4geC48Hk0yz9u/7xO3JfZb81pzsN6Gswf9OffGwqMvRpBwDtYJoR2AdqJqctNNfZ70oHAi4S1EcN/QEgHO2AwD7QxTS3gydOvCJ3P/iUOeDui796uh7EP+9fn5CNv/zpeIP4GrTX4D1B/JHgeDDZHjh2j1l6R4P7fk3i4Ljd0A4A2sE0I7AP1ExaW6hUCnJg9y7Zt1qSkivIn0gkRGa3yo7tmyUVi1lzAfoDgApDOyCwD3Qxle1Aa+JrzXutfX/smPn3taOPyknPd87gHwo7iG+X0yGIPxYcDyaTltu565Hv9FRHXzPzNUNfM/WnrY4+7QCgHUwzAvsAABv9ASAc7YDAPtDFxLcDO4ivdfAPHmwMZKvzR80O4ut05ZUE8UOE48FkscvuaKZ+r1n611x2o6w57TxrznShHQC0g2lGYB/TzH7/u9EeMK3oDwDhaAevs/4CmAYarNcA/sqKyKc+JfKud4m87W21v9ddJ5LN1m4fUVD/6JvjUopdId96//Xy1f/4n+T7//nHIj/9qcj+/SKLi7UsfYL6QKB0cNxb7/9rs5a+36C+ltu5/n2flxuu+MrUBvUBAAAAAAgTMvaBLiLdDjRIb2fj33nn+DLxDU/+4Vvk6Lkxqbw5Lj9/67vMoP4LJ3uX8fjzP71Arn73ubL2wtOtORg3jgfR1+/guNNadscL7QCgHUwzMvYxzcjYB5rRHwDC0Q5mVldX2wb2AUTHGx5/XE555BE59Z/+SU578EHz8uuff966dbReOfWN8j8ufKevIH4nsfNPksvjb5D3xk+25gDo1W//7WV57PlV+dFTd5qX/XrLaWvlfW/+iJxzyoXWHADANPufb/u0dQmYLhq8bxfY/6/XfdW6BADA6JGxD3QRynagWfdaC18z8e+7b6Tlc1poqRythW8PbOson/PdHx6X795/XJ488ap5fRCaxZ/YsEY2xs605mCUOB5Ek5bdWXl4yRwk1y87S//K2BZrDmy0A4B2MM3aBTaBSdcpsE/GPqYV/QEgHO2AwD7QxdjbQdiC+Bq4twe2ta93cbDynNz9k6fk7gefsub0T8vzaJkeDfRjdDgeREu/g+NqyZ35d2Qou9MG7QCgHUw7Xn9MKwL7QDOOB0A42gGBfaCLkbYDDdhr4F4D+RrEt6+Pgx20twP5F1/sK4jfjWbxl1ZPyMGjz1lz+pecPUe2XPEWsvhHgONBdGiW/h0P3SInXnrSmtOdDo676ZKPyaUXJKw58EI7AGgH047XH6AdAIp2AISjHRDYB7oYWjuwg/Y66cC2YQnia0kd/auBfKukzjAcffxFM4tfA/2DOm/NyfUs/jNOPcmaiyBxPAg/DeSv/HxJHj5esuZ0x+C4vaEdALSDacfrD9AOAEU7AMLRDgjsA10E0g6cQfyDBxuXx2EMQfxuiqtPy/4f/iqwLP73z54tmy4/z5qDIHA8CC8ttXNfeb/88OidPZXdib35HTJ/acbM1oc/tAOAdjDteP0B2gGgaAdAONoBgX2gi57bgVcQ/7HHavNHTYP1GrTXevgXXVT7O+YgfieaxW8G+e//lbzw8mvW3P5oFr9dquf8NadYc9EvjgfhxOC4o0U7AGgH047XH6AdAIp2AISjHRDYB7ro2A40WK9Be62Jf+xY7e+4g/h2Jn7Ig/jdaIBfa/EHMeAuWfyD43gQLv0MjqsB/UsveD+D4w6AdgDQDqYdrz9AOwAU7QAIRzsgsA90UW8HYQzi66QD20Y8iN/JEydeMQP8373/uDx54lVrbv+0Dj9Z/L3jeBAe/QyOS9mdYNAOANrBtOP1B2gHgKIdAOFoBwT2AS92EN+Ynv7ud+Wchx8eXxBf2XXwNRN/fn5ig/jdkMU/PhwPxk/L7dz1yHcYHHeMaAcA7WDa8foDtANA0Q6AcLQDAvuAsuvg69877ySIHwHf/eFxsvhHiOPB+PRTdkdplv41l90oa07j5FVQaAcA7WDa8foDtANA0Q6AcLQDAvuYPmEK4mvAXsvo2DXxNahPEL8nQWbxb1x7plx1+ZvJ4vfA8WA8+hkcVwP5Wkf/0gsS1hwEhXYA0A6mHa8/QDsAFO0ACEc7ILCPyaYBe62Fr0H8++6r/SWIP7GCzuK/+t3nytoLT7fmTDeOB6NlZ+nfV9lvzemOsjvDRzsAaAfTjtcfoB0AinYAhKMdENjH5AhbEF8D986BbXXCSBysPCd3/+SpQLL4NbCvAX4N9E8zjgejoyV3Vn6+1HPZHQbHHT7aAUA7mHa8/gDtICoKmRmZW9ZLCcmWi7IQM2cjILQDIBzt4HXW34FVckmZmZkxp2SuYs0FhsQO4u/cKfLBD4q87W0iZ58tsmWLyM03124bVVDfzsRfXBS5916Rn/5U5Jlnapd1/ezAPkZmY+xM2f7RuNxzS1I+8ZG3DZR1f/TxF+Xrdz4qV91YlN1/XzZPGgDDoOV2vvmjL8odD93iO6ivmfladuf6932eoH5YVSpSyGUkmWz0k8zJuJ7M5CRXoM8EAMDQVQqS63A8DvZwXJFc0vEc3aZkzngEhqckh8vWRYwX/WIgcIFl7GtgP75YMi8nsmUpcjoUQdEAvWbf66Q18e3r42Bn4uukJXXsywg9DdBrFr+W6xmUnihIbFhjZvGfcepJ1tzJRkbG8DA4bnT01g6MLy6ZbTK3XOsbdZRIS3bvEplkiASOB9ON1x/RU5GccTxe9HE89hvH6N4OCpKZmRMzWdyXtOSrS5KyriEYjYx9Yw/nq7LEDg4U/WIgHP0iAvsIF2cQX8vp2IPcjoMVxH/6rW+Vc/7sz2oBfM28py5+5GlwXwfcPXh08Oz75Ow55oC7+neS8UV+OHRwXM3QP/HSk9ac7jQzf9MlH2Nw3DHw3w6ML/RJ4wu967tLwviiMjtbu7y6uiylptv5Uo9o4Hgw3Xj9ETXOOIVxJJZ0eqvMz68zrx1Z2SX7jIO183DsJwDcvR04A/sJSaRnxTr8e1s/L0sL9ACCRmB/uOgXA+HoFxHYx/g4g/gHD9b+aiB/VCV0nDRYr0F7LZtz0UWN8jnGfL7ATC7N4i+uPi377/+VvPDya9bc/py35mQzuL/lirfI+WtOseZODtpBsDQzX+voa5a+XwyOO37+2oH+/D4u9RiCBhHye40vk179Iv058m7ZtWh8maH+KyKC48F04/VH1Jhxin2zkt+7XVIxj4NspSCZuCO7PpGVcnFBOh2Ou7cDZ2CfAOW4ENgfLvrFQDj6RYHV2Ac6soP42azIpz4l8q531eria318vX777bXbRxHUt8vpaE38r32tVhP/0Udrf/W6ztfbycyfeFpS5y83/bHs3/Ve2XndJbJx7ZnWLb178sSr5i8BPv7lh2TnbY/IXQ/6z8DG9NCAvgbzv/S9a3sK6mvZnRuu+Bu5MraFoH7IVXLbmr686JcS7y8vKiaphSUpVsvG4XGHbObLCwAAgYotFKVaXPIO6qtYSpbyaeuKoXRYKMcOBIN+MTB8BPYRvHZBfP2r13X+qIP48/ME8dGRZtvv+eSsfPuzl5kD7moGfr/0VwB7/r5iDrirA+8+ceIV6xZMMy27c+v9f93X4Lg3XPEVBseNhILsbnx7kUR2r89Mo5gsLKQ6ZgcCAIAhia8XChwCQaNfDIzCmAL7nUfC7joQdiFTf0ymUJtVMeYlHSPPJ40bPBejo3BnjOfxM0p9p9Hp66N5Nz8mmcxM10jedhBfM+7DFMT/wheag/j79xPEhy9aRkcHxf27z77bzOK/+vJzrVv6QxY/7LI73/zRF+XxZ49ac7vTkjuf+/DtZpY+oqGS2+UYKC8tOwL4/XClUpCcV7/F6DNlcm36OrZ++ksej6n3naz55tRrf4d+EwAgrMqHG3X2E+slbl0Mg4H6AU72clzLMPsBXgtx9AeSuc7PoiVvavdNiuddh9S3qBRyknHFlHzFkzzZ/ZQ+Y1RoQb+4A/rFCNDIA/tmw5mJy5zWzWoeHUN0tIzS8qLMxT0aVAdm3by55sE2SssrrT+h0+eOG8+tA+S4nroXFW2AuhxzG6yZllJpWRbn4kbD7nBSIKrsIP7KisjOnc1B/OuuG20QX3UK4uv6EcTHgDSLf/tH42apHrL40Q/N0t/z/Rvkvsp+31n6mpl//fs+L9dcdiNldyKlIgf2NToFiez2werpVvTL6ozE43Oy6NVvMWYsL85JvN2XaA+++0sOZr/N7jtZ80xWf0f7a91Mbb8JABAJhZVG+FFm14UjUziwfkAtCDljL8eaazKWUVo2lhHXoGgQR+GSHPZRx2jwvoXWbTf2zdyiLLt2TC2eZGxPTycIjPUJOEYF+sXt0C9G0EYa2K83HOu6JNKSzuYlnzembFbSicYP4MwDjI9GISuZxij3xuPTaWOZuhj3mXbjgyBZf27jfsbzlstlc8pn000/vauv047NLQd1cxu0AZrXmpdTzus2mDcYG7Ao8ag3Rg3QewXxt2wRufnm0QbxdSBbO4h/770izzxDEB8jc8apJw0li/+mv10li39CaWa+Zujfev9n5MRL/l7jRtmdv5FLL+AH4dFTlsOOzvnsusHCAoXd+mXVuqL9jXS21jcxpmxTv6Uki/GMdO0x+e0vOazucvTbjD5b1uwftfbXOmXyTVW/CQAQMZo1m6wPsGoOdBuSEVaD6gcUMrUgpC1hLCdrLsf42zgIy/Li7u59iQAE0bfQbXJUeDG3ydw3ul/MxRjbM6fbbd7c0VBiVDDQL/ZCvxhDUe1gdXXVutRdOZuo6uJ0SmTL1lyHcrZqvEfr90nnPe5jKOfTrvtZNzgZ97FvtyfP53TIp3tYpucdDE3bkK62uVfTc3Vbr1B75pmqsRGjn846q1qdn69Wv/CFavXee2vrMUa9tANMl/983+PVj+16sPrvP/3fBp7+duWfq5V/ecFacvjQDvx56bfPV/cf/Eb1P/6X/1Bd/M+bfE//zx9urz794hPWUhBWHdtBUx8hUR308G/2qxJGX6PcbkHlajbR6G8E1V/y+xhnv08SWWNtPExbv2lKcDyYbrz+iKxyvprP21O2mk03xx1qx1zrvl10bwf5arq+7PbHv06C7we06ZsY+6W2HNd6Oh4baKzFmvruW/jYpqblWJPnegUZo5pC9Isb6BdPrzD0i0aWsa9n2OwTbMabs+1I2LHUkuw1WqRteZePs1TpvBQ71usqSP3XdYmsbPc6CZ/aLvWnXV7xPMPn3IZ0fqntT4lS27P1M4alfQeie5ZNM+A1U36Y9Dk+8IFGJr6W09FsfDsTX28jEx8hZWfx7/nEbCBZ/H/11Z+Zk15G9NiD4/ZSdkez9LXkjg6Ou+a086y5iCRnfV6ZlQETkyS2UJRq0ehrxNotKCYLO9LWZZHVIz56G137S62ML7mej4kt7JD6s5f2yQGPp5+6fhMAIKQqkts2J3Nz9rQoi8t25q2VNWsec807B2xVjhQKUugweR33Bu8HGNu8y1HhPF/0Hrg0lpKFomYMD1gqpQcD9S0cZZPaDcaq+67siCm1M9QY1bSjX9yCfjGGZUSBfUdg3cegGX4aRV0iK+VuP5erHDEOp5a2NfNism7WuqgH35bn9HFywBbbLFvrLfFwxxpdoaflb4JiB/F1EFsN4mspHQ3i62U7iD/sEwnAEGyMnWnW4r/nlqRZi3/thadbt/Tu6OMvmjX47Vr8ByvPWbcgrPoZHFcD+vbguPoXGFSpW1FbP/0lN+MLT7svucbXDplvdNY8aupOab8JABAtjtrcPQ1G61tJFusnFLynbQHUt2/tBzhLoaRlvmMXICaxtgHTgAXVt5CEbN3cfp01EJxvxHk9DDFGhbGjX4xpMprAvjOw7muU+bisr58Q7TIAy6gGt2k6OWBMlYrxr90kXU4SRMjGjdaFHjmD+Jp97wzif+1rtdu0Lj4wYTSL/xuffmdgWfw3fX3VzOL/1l2/kBdefs26BWHRz+C4sTe/w6yjz+C46EdTf8Oa58uoBwOc1n4TACCEYrJQrEq16pxcNa3FCvCHvIZ60/HTmuepsCKNGLifGEwENMWVtkqHuH53w4xRYWR8twc3+sWYIKMJ7Dt/huOrATmz5wMQW2e2HdPqkTYNviJHHC2t5adCzm1YXpR4PN5x8jNQSyT4Cb47g/i33VYL4mtJHTuIr1n/BPExZdxZ/BvXnmnd0jvN4v/23b+ULTt+LDtve4Qs/hAYZHDc69/3ebnwrLXWXEyM+Pr6z2aDVKkUJJNMyszMjDk19TfC3NmY1n4TACAiYhJLLchSsdpctqXL4Je9S0u+6YRC69SpHEgg/YBRBzGHpee4UgfjjlFNOvrFzegXY4hGEtivNCLmY+L4WUxpUXZ7F9BvjKyenm9b76pnicHriY2VuzSOM4ivQXt3EP/aa2tBfOriA3Waxb/nk7NmJr9eHkRx9Wkzi/8vvvwTs1TPEydesW7BKNhld7SW/sPH692zrjRL/6YP3SpXxraQpT8VgsiuqUguqV9Y5mS55P+9FnlR7zcBACLHXbYlHHWtB+sHjD8GE27sn1GiX9w3+sXwYSSB/VgITm06B6BYnrPq51k/dSnkMpKsnxJLSLZjwStDOu95pt1z0gE+rIdFkgboNWDvFcTX4D5BfMA3rb2v2fuaxb/zuksGyuJ/8sSrZqmej3/5ITOL/64H/WWNo3/9DI6rmfmaoc/guCPwws+sC2Pi/HWglGTfgMVXC5l4I+HA6JvoYF1ldx+jc/HY8JimfhMAIJJSjQLZxmF8/HWtB+0HhCEGE2bsnyGjX9we/WIEbESD5zq0LYXj5CyLk5D1ARSEc45ArR8sZv08+2cui9aI+OYHhPfI6k0/JfK1DRNEA/gE8YFAJWfPMbP4v/3Zy+TjV79Vzjj1JOuW3mkW/56/r5ilesjiD14jS/8zPQ2Oq2V3tJb+pRcM44eoaHFoi8iP3yZy9FMiz/7AmjlKzkGzBsz2q+RkV/0nuPoT/qI5WFekEnamud8EAMAggu4HTMpxeFh9izHFqCYb/eIm9IsxRKMJ7DvfxH7OflcOyL56FD6An54UMvUaVYlsXvLZtCSa4iwJSaSzki/XPiA8Oc84MjI1gICcv+YU+ctNfyz7d73XzOIfZMBdHVyXLP5gPXDsHvnS9641s/T9sgfHpezOiJ3xTpFXHhP5l6zIwQ+K3Dcj8k/XiTxxu3WH4WvO9mtT+s8PZx3OIMsDjhL9JgBAhISqNEsQ/YBeYzAdlMIyUmyQfYtxx6imAP1iB/rFGKLAAvvlw/Wm1iq2WbbWPzWXZVeXwWgqB/YF2nAbB+mEbN2cktTCkhSbRsUvSnFpQdrF9Guco6B33wYA6JVm8euAu5rFryV7zltzsnVL7+ws/qtuLJLF3wfNzNcM/TseusV32R0Gxx2zU1xjwigN6mtwX4P8mtGvQX8N/g9Lars0j7+XkYKv7oKWBcxJv993wol+EwAgKipyoBG1jW7w0MkVg1np0snQEsVNfGYYV3LJEQ706b9v0XW9xhyjmgr0ix3oF2N4+grsm42s6X1YkBXHh+Zsy+nLmCzsaJytKy1uk0ybFl0pZCReL57lo969D436aVrbq9Dnz178b4NNR+z298EFAA2axa+D7P7dZ989cBa/srP4b/rbVbL4u3AOjqs19f3ScjsMjjtmZ15pXWjjNyu1Mj1arkcz+odSssfoK+xtjOmjHfe5eLJDf6Fi9nuSM1oWcF9jYDHnl+nlFc8vNvq4mdF9k+4D/SYAwJhVcsYxtnYcbn94qUghs62pfncQMYiBBNIPiMnmRuTaHGfQM5ZoHHtrg5Lubn6epgzjRdnm8WANnjdiN6PQvE3at2hdLQ0K+1mv8caopgP94gb6xRiePgL7FTmyb9FokDOSzGQkY0zJmTmjidrSMu/1OZdacow0XzIOLHFJJjOSyxlv1oIx5Yxl6QHF0RgT2Tb17ntlPHdZy+8YF0taW39mRmYcUzKZrE+1QXVrD2vhsQ0zxjboY8xtqG9H0lyujti9a8BBQgBMNzuLXwfcHTSL/+DR55qy+I8+/qJ1C5QG8vd8/4a+BsfVicFxx+ysD1gXfNCAvl2yp3h2sEH+2IIUjc6C42tnrb9g9jdq/Saz72T2FeJmv6flq6cri2xO+0salDAH/Te+gGeML6yh/vJiod8EABi72vHHjAGYx6Bc/RiUM2MZcZlbbhyJA4tBDCKgfkBsYa8jY7oki2YMJ2csS7ff+GssZ8Y49nrHwFOy3ZFuXVq04jfWsTupsRvrgYnmOsdD1bpNSXOb7D5FMqlB4dp6pdONQKqnccaopgX94gb6xRiWagerq6vWJady1fggrepDvaZ03rqbp3I1n054Pq55ShjLKVuP8ZBPN+7b+Qnrylk/z9uYEtl2z+93G2pT++UgKrzbATA+/+3h31S/cseR6r//9H8beLrx1oer33vgCWvJ7U1yO3jpt89X/98/2VNd/M+bfE//8b/8h+oPyt81H4uQ+N0z1eoPjG7NoNPqfLX6q9tqy3PpqR2Us9V0h/5S05RIVLPufo/xeOM7jPf9rSmRzTf6ZF79oT76S708xvhyUr9v+7vSb5o09IumG68/oqVczfo+BiWqaZ/HoO7tIF9N15ebNq71IYh+gMlYl679kXbb3jn2U4/bOPoOnqsReN+i2zYZ/SrdnG7rZQooRjWF6Bc3o188ncLQL+ojYz8mC8WyGG9Gx1k342MukRaj7clSx18lxSS1VJRqOS/GAdY1gK0uIyHpbF7K1ijX7TV+ipNYb13opOmnU8ZjdADdfGPKptPm2Vzn+ugZ6YxnUa/O22As3dwX6awOxluVIqdzAQRsmFn8ByvPWbdMPs3KtwfH1b9+MThuCGndfM2496qz3yst2aN1+TWTX/++9qx1Q49iC7JUrEq5XX/BmFEbuL8s1WJRFtz9Hs1wqhr9rbYD/msfI27Na9cf6rG/ZOrhMY1ioR3QbwIAjEtMFsxjUO14mm49CBnHIEcMIsBjkK9DZCeB9ANUqtYfyWdbt9/e9nK7bdfYjz7Wax284jYJWd9YJYeg+xa6Td77xn4tmzen3XqpoGJU6Ih+sYV+MYI3o9F963KLQ4cOyYYNG6xrUVWRXDJe/3lZOt/55ENTnTjjYFXtfKYCU2Ay2gEmnQbk7/7JU3L3g09Zc/q39sLT5ep3n2vW+bdNWjvQsjsrDy+Zg+T6pUH8TX/yMTOgjzHRIPsLP6tNrx6rBfM1qN9v8L2Tk84SefttIm+at2ZwPAAU7WC68foDtANA0Q6AcLSDvgbPjZayHLaT9RNZ6TbOSWzz1voZOQCIio2xM5uy+DU43y+tva/Z+5rFv/O2RyYqi98eHPebP/piT0H991x0lXzuw7cT1B8VDdTbdfC1/v1D76pl0OtkD3yrt2mAfxhBfa3X/95Hm4L6AAAAAACEyRQE9h1Kh6VsXWynsHtffbCORPvfawFAaGmm/Tc+/U5zcmbd96O4+rTc9PVV2X3n8/Ktu34hL7z8mnVL9PQ7OO4NV3xFrrnsRsruDIM7gG8PZjuqAL6bZumv/ZrIxntrlwEAAAAACKkpKMWjJfZnpD5IttZI27pD5jfHxRm2Lx84ICv7FqUxIH5a8tUloRAP+IkZJsFdDz4p9zz4a7Om/qC0xv/7Z8+WTZefZ80JN83Mv+uR78jDx+sf8F3ZZXc0U5+AfgA0KK8lczRAr3+fu6/2V6ewOOOdtdI7+rcNjgcA7WDa8foDtANA0Q6AcLSDqQjsu+vsd6UDARcJ6qOGAxYmiZbZ0Sz8/ff/auDsex20V4P8W654i5y/5hRrbnhoVv5d//gdc2Bcvxn6SgfH1Qz9NadF48RFqNgBfDuIrwF8e94oMu77df61tUz9Lln6HA8A2sG04/UHaAeAoh0A4WgHUxLYr6lUCnJg9y7Zt1qSkivIr6Ody+xW2bF9s6RijDyNBg5YmFRmgP+Hv5rILP5+B8edf0fGzNJHF1EN4LvZpXc0sO8DxwOAdjDteP0B2gGgaAdAONrBVAX2gX7QDjDpnjjxipRWT8h37z8uT5541ZrbP63rP64s/n6y9DWgf+kF7zeD+pTdcXEH8F882LgepgC+BuhPubg22evajQ6Qq6V39DE+cTwAaAfTjtcfoB0AinYAhKMdENgHuqAdYJpoFr8G+e9+8ClrTv9GncWvNfRXfr4kJ1560prTnZbdmb80Yw6SO9WcAXydnDXwwxrAP31jLThvz7PL6Dy2U+TYzbXL7fzRoshFX2g8xieOBwDtYNrx+gO0A0DRDoBwtAMC+0AXtANMq+/+8HgksvgZHLdHGqy3B7F99ZjIsz+IZgC/nd+sGB/cW6wrLvpYzdJ/07w1ozccDwDawbTj9QdoB4CiHQDhaAcE9oEuaAeYdprFn/9v/ywPlH9rzenfxrVnylWXvzmQLH4Gx+1CA/UawNcpCgF8nc68snG5WwC/Hd2+4tnWFYc+Su+4cTwAaAfTjtcfoB0AinYAhKMdzKyurrYN7AMA4HTfoVflvsOvyonn/82a078rN5ws74n9gVx4zuutOf796qWj8qNf3ylPv/K4Nae7c065UN615iq5+I2XWnMmw+urz8sprz1iTm/4t+Ny+u8elDf8/nFzfpj87vUXyisnXSK/fd0F8jtjevENl5vzfj/zRusewbnk6ffXt1+X/+vTPinPnjI/lOcCAAAAAGAcyNgHuqAdAK3t4GDlObn7J08FUot/7YWny9XvPtcs19ONnaV/X2W/Nae7iSm7487Aty+HKQNfaab9Ge+sTSdfVMuUHyQDvx8Pvau2b3QdtJZ+n6V33DgeALSDacfrD9AOAEU7AMLRDgjsA13QDoDO7UBr8WuQ/+jjL1pz+qfB/cSGNbIxdqY1p0FL7ujguL2W3Ync4LgaqLfr4L94sPZXr+sUJmEI4Ldz9FO1/bZhf6Drw/EAoB1MO15/gHYAKNoBEI52QGAf6IJ2APhrBxrY18F2g8ri1wC/Bvqfe/WY3PE/vmoOkutXJLL07QC+HcR/7r5GVn6YuAP49uUwBPDb0X06QC39djgeALSDacfrD9AOAEU7AMLRDgjsA13QDoDe24Fm8ZdWT8jBo89Zc3r3+pNekXPf+kN501t+LtWZl6253Wkwf/4dmfAE9NsF8PW6/g0LDdRrMFyD9qdvrP3V60MIkEcVxwOAdjDteP0B2gGgaAdAONoBgX2gC9oB0H870Cz+4urT8u27f2nN8ef0M4/JH8X/i7zhZP+Bby23s+mSj8mlFySsOSMWtQC+ThrA1xI6dlY+OuJ4ANAOph2vP0A7ABTtAAhHOyCwD3RBOwCCaQca4N//w191zOLXLP23vO1uOevcg9ac7kZedscZwNdJA/j25SgE8PW6/kXPOB4AtINpx+sP0A4ARTsAwtEOXmf9BQBgqJKz58ieT87Ktz97mXz86rfKeWtOtm6pBfTPueDHsu6y/62noP6Lz10k5/5+Qd6+JjWcoL4G63+zIvIv2dqArA+9S+THb6v9PbSlNk9v1wz9cQX17Wz7N82LXPQFkY33ilz2U5H3Plr7qwPIXryzFtgPe218AAAAAADgCxn7QBe0A2B47UCz+O899GN5/Lf/Hznl9Cetud39/rVT5Klf/qk8ffy91pzaiYP3z54tmy4/z5rTAw3Ka3Bep1ePiTz7g3Bn4Ot05pWNywTrR4LjAUA7mHa8/gDtAFC0AyAc7YCMfQDAWLz8uxfk1//2f8pLp32zp6D+s09tlCMP/S9NQX2lJwn2/H1FrrqxKF+/81F54sQr1i0OGqjXoL0zA794dm06+MHaPL1tnBn4SoP1moH/R4sia7/WmoGv8/R2MvABAAAAAJhKZOwDXdAOgODbQeXXP5c7HrpFTrzkP6CvZXd+9egmeeXF7hn5Z7zhBVn7h2W5Yu2/yDvf+oxcdPqR8QfrvdhldHQ6+aJauRwy8EOL4wFAO5h2vP4A7QBQtAMgHO2AwD7QBe0ACK4dPP7sUbnrke/Iw8dL1pzuqr8/RZ74xZ+amfpagsdJA/jnnfYrWfuHFVl7ZtkM5p9/2hPmvFAhgD8ROB4AtINpx+sP0A4ARTsAwtEOCOwDXdAOgMHbgZbduesfvyMPHLvHvOxX7M3vkGsuu1GO/8ur8tDDP5N//ufDZgB/4zk/rWXlG5dDhQD+RON4ANAOph2vP0A7ABTtAAhHO6DGPgBgqLTszq33/7XcV9nvO6h/6kknyzUXrZUb/vBBWfOPH5bZX2+UbW/6iNz8nv8of/n2b8rGN/10vEF9O4B//rW1evcb763VwE8+U7us87Q+vt6HoD4AAAAwUoXMjMzM6JSUXMWaiQirSKVQkIIx8XICDQT2AQBDoUH8lZ8vya33f8YswePHqTO/l02nVeRzf5iX97zwt7WBbsdZG98O4OtAtRd9oRa01wFsNYCvf99+Wy2Ab2fmAwAAIBIquaQV+LWmZE4K1m2DqUgu6Vhut8l4XgKVw1SSwyH7ke9EK2QGe29XcpL0eHwlt03ic3MyZ0xx2gxQR2AfABA4Lbnzpe9da2bp+xV7wwm54Q9/LB8+9aicOvOaNXc0XvjdGXL0ubiUnrhCfvDMDVJ50/+3FrjXLHz9u8HYjot31gL4GugHAABAhBVk96JrzKfSYevCoMpy2P9wUubzEnfGxIivl4R1UUr75ECPEfjKgX1iN5/E1s0Ssy6XnY2KNgPUEdgHAATjlcfk8cf+d/nmvdvkjodu8V92Z+Y1mT/9Ebn+jT+VC0963po7HM4A/rf+6Xq5qfi/yV/dd5t8/P/3f5p/v/DA/0O+fP818olvniV/kXtNvvX9f5UnTrxiPRoAAACToJCZk2Xr8nAlJJFOS7rTlJ2XlHVvIPJim2VrI7Iv+3qK7FfkwL56WF+2brbD+iKp+XT9hEEiTZsBbAyeC3RBOwBc7UDL4mh5HJ1ePWaWy3n55V/KXf/6Znng1Qvl5epJtfv5oFn615yxKmte97I1JyAnnSUvyh/Jo8+cK//j+MVmMP/Jl8+XJ196ixnc71Vy9hx5/+zZsuny86w5mEYcDwDawbTj9cdE0FIf8UUzKziRzcrs4qIV5E9LvrrUNWDYvR0UJDNjnzjwt0wET2vsz1lnb9L5qizxIgSqUzvQMldx+xcxiayUiwv1zPuOHG2zp8cBYxKGfhEZ+wAAbxrA1xr3/5KV81/8G5GH3iVSPLs2HfygyNFPmbdVnvmF3Hri7XLfKxf5DuprZr5m6JuD4w4a1Nfa9loDX2vd66C1Vgmd05MPy+z/9fuS3Py/ytp3/N/lyd/+SV9BfVVcfVr2/H1Ftuz4sXz9zkfJ4gcAAIikiuS2WYFDScuOhXXmJQDBiW3e2lc5nnZleAC0R2AfAKadI4BvBus9AvjnvPztWoa+YxBbDeKvvHiJ3Pqvl8vjr73RmtuZXXbnhj98QC79g6esuT7pQLbuAL4OYqt18LUGvs7T27QGvt7XsvbC0+UvN/2x7N/1Xtl53SVy9eXnWrf07oWXX5Pv/vC4fPzLD8nO2x6Rux580roFAAAAoVfYLXYicTpPJj0wFLEF2ZG2Lvsux9O+DA+A9gjsA8C0sEvoPHF7LYCvQfsfv60lA98dwHfTgL6W3PnSM1eaWfp+1QbHfUCuPOVY58FxNSivg9S6A/g6dQjg+6EldbZ/NC7f/uxl8omPvE3OW3OydUvv7Cz+q24sksUPAAAQegXJ2LVZElnZHoGofqVSkFwmKcnkjMzMOKZkUjK5gviuXm4vx7WMZMZYhtdCCpn6/ZK5zs+iJW9q902K510dyzKersZ40kLL+mQkV/C9RcYm5SRjbEP98caUzOSkh0U4GOuTyxj7uXl5tX3U7zKnm9bEt5X2Hej+Xq0ckEZcf6u0xPWN19t+vySN936LIb3PeG8g7AjsA8CksQP4v1kReWxnLWhvZ+Hr33+6rhbA1yz9Vx6zHuRP5Xdr5NZ/fY/c8cKs77I7jSz9B5sHx+0UwN9470AB/G7OX3OK/PmfXiB/99l3D5zFr+ws/pv+dpUsfgAAgBCq5HZZde8Tkt0b8trdFQ1az0g8PieLyyUp2QFPmzFjeXFO4u2C6XW1wOaMvRxrrslYRmnZWEZcTxIEEZ0syeGydbGDSiEjyXhc5lrWZ1kW5+LmyYbOKpLTfTO3KMuuHVNaXpQ53Z6eThAY6zNjrM/isrFLXDva3Ee6TD1p0MOJFGhkXxpJ+93L8XQvw3O4fnvpsHWhg8HfZ7w3EA0E9gEgqtoF8DULX/8e2iJy7OZaAF/vNwC77M43n3+X77I76j0nPy6fe/PP5Mo3nd0I4GvQfkQBfD/sLP57bkkOnMV/8OhzZPEDAACETSUn2+o1eHbIQsirfBR2a9DauiIJSaezks/nzSmbTTfql0tJFuMZaReiLGRqgU1bwlhO1lyO8TdtL0VPEuxuu4wgre5KSnxuuRZoTaSNbamtSzrh2KLluY6/EtBtsl9Kpdtk7hvdL+ZijO2Z0+02b+7IHOTVXh9lrFPaXCddXut6xX0Eg2FLSSNpv1s5HmcZHh37YrAGGsT7jPcGooLAPgCEXa8B/A5ldPqhWfp7nk30NjjuaafL9Zf+uVzzof8qp/5fflPLxrcD+JqlP4YAvh9k8QMAAEweDZTXAnQJyUagBk98fcIMJObLZalWi7K0tCCpVMqcFhaWpFgtS7YeV1yWFa+YYiHjCG4b212uStFYzoK5HOPvUlGq5bxjOcNnZz0nssZ2FZeMbamty1KxKGXHirQt3dJmm8x9o/ulWG1aTkfOkz2GdL62TkvmOunyrPXKO06kLM81yrygK9/leJxleNLzA499MfD7jPcGIoTAPgCEhTuArwH7EQbw3TSIrxn6OjjuiX871Zrb2alvOEPm35GRGz60Vy6NGx25Uy62bomWYWbxH6w8Z90CAACAoavkZFe9tP7eEWfrr8qRQkEKHSavwGJsoWgGElOxdisbk4XG6KSyesS9lIrk7I02pPNF7+2OpWShWJZyefvIBhLWIGnRY2ViCzu6lm4prDS2qd1rqfvOT3C/cbKnFgBeSnnv61hqSfY6lre8K9c+QI1mPsvxOMvwpOeDeScO9D7jvYEIIbAPAOOgte01gK+17nXQWq8Avt4+ggC+mwb0v/fyWvnSMx+Qh3/rP2s99uZ3yE0fulWujG0xA/yTws7i3/OJ2UCy+G/6+qr81Vd/Zl4GAADAMFUkt80O0g1e4qN3JVmcm5O5DtO2AOrbl1qK25flcD3hOC2dY6UxibU9gRCwdL5tkNRduqW1Xn9BGnH9hGxtGV21QYP7+cZ5Dw/OZXV/X/gJBsOLn3I8zWV4AonrB/Y+472B8COwDwDDpEF5dwBfB7HVIL4G8HWe3jaGAH6dlsXR+vZvmpfKmk/Jrb/9v8ldL8Xk5errrTt0pkH8ay67UW644iuy5rTzrLmTZ2PszKYs/rUXnm7d0rujj79oZu9rFv/O2x4hix8AAGAYCrvr9djT+aWRZaUPS6VSaUzWPE+FFWugYENivcSti5FWOSKr1kVJbJUOcf3umpblZ//ERasj1fgbJBg1XcvxBFyGZ2C8NxAxBPYBIAgalNcSOe4Avk5hCeArK4Bv1rp/+2212vfvfVRefsf9svL7D8s3H/uFPP7Cb6w7d6YB/fdcdJV87sO3m3+niWbxf+PT7zQnvTyI4urT9Sz+b931C3nh5desWwAAANC/gmTsguyJrIyntH5a8tWqVDtMXuVCbJWKsQ3JpMzMzJhTPB5vTI1i853NrpNBYuChUT4s9R8hDLpNPS8rJutmrYvoTZdyPMMowzMQ3huIGAL7ANCLTgF8HdQ2LAF8rW1vB/B10FoN4Cefqf3dsL827/xrzUB/5ZlfyJ7v3yD3VfbLy797wVpAZ1p254Yr/sbM1J+ksju90qx9zd63s/g3rj3TuqV3msX/7bt/KVt2/NjM4mfAXQAAgP5VcrusrPWEZPcuDBYIHrmK5JIayJ+TZWsg0F5UjtRzjuGB/TNKKdler0PvLsczhDI8A+K9gaghsA8AXjQor8F5O4CvQXstnxO2AL6W0TnrA60B/Pc+2gjg622aqa/3dXj82aPyzR99UW69/zNy4iV/QWR7cNzr3/d5ufCstdZcKM3c3/PJWTOL/+NXv1XOOPUk65beaRa/Drj7F1/+iVmy54kTr1i3AAAAoLuC7LZr8CRmRcreA9cWCo6yG00D3Y63UHYhE6+XENITEzoQaNmd7d+hiHyMFOKO2D+jFdu81XgX1zSV4wlbGR4D7w1EDYF9ANPNDuA/cbvIYzubA/iajW8H8DVLXwe8HZd2AXydNt7bMYDvpln5Kz9fklvv/2t5+Lj/DKBJHRw3aJrF/5eb/lj273qv7LzukoGy+J888ao5yO7Hv/wQWfwAAAB+Oetkl5Y7DGBrD6yrnAPdbpMAxrTtTyUnuxyDd+arRXMg0L5/cbB6pHM9/qiIr68HhwPdJl/LqkgjkTsh6ydi0IIRim2WrY3Ifr0cT+jK8Ljx3kAEENgHMB3sAL4OZGsH8DVwr0F8/ftP14kcuzl8AXwN2vcZwPdS+fXPzYB+L2V3dEDcf3/BtRM/OO4wJGfPMbP4v/3Zy8xSPeetOdm6pXd2Fr8OuEsWPwAAQAexdRLZvFtnje9+s5idQfDSYRlkPM9SWEYDdb6mA25Tz/vHmVlurMW6aNV1CoGYbG5E9q1yPOErw2PivYGIIbAPYLJ0C+DrQLZ2AH+cZXQ0KK/Bea1zf9EXakF7LZ/jDuBrkL+PAL5bI0v/M2YJHj/ssjuapX/xGy+15qIf5685xSzV83effbeZxX/15edat/SHLH4AAIBOUrLkLl3jOeUbA3ua2fH2/KJ0GNM2/JwZ0rIsKwXrYhuViisv2Wd2fCWXFL9j+A4uLusd27Srw08quq6Xa/90WpZyZpaHpWRM1DSV41ncLQVHQDyR3R6efcp7AxFDYB9ANLkD+BqwD3MAXweytQP4zoFs336byMXG+msAXwe8HYIHjt0jX/retWaWvl/24LiU3QmeZvFv/2jcLNVDFj8AAACaOIPqyyviFZOvFDIy0zly7ciQNhYzl/QuLVQpWIP07m5+nqbs+EXZ5vFgDZ7HGwMBjEDzNpUWvcolVaTga71isrCjcUpHl5VpM66C7uvG8hKS3U7oti/ugPk2OyCekK2bw3QWjfcGooXAPoDw09I4GsC3B7L1CuDr7WEM4GsWvv7VgWztAL7ebwTswXHveOgW32V3GBx3dHRw3WFk8d/0t6tk8QMAAESVKwA6l8xIrlAxs+orGojPJCXuI00+trBXsvXllGQxPiPJTM5Ylg4ObPw1ljMTn3MM0uuUku2NB0tpMS5Jcz2Mx+YyxuWZekAzkWjcb9hatylpbpM54LG5XnGZs9YrnW4/uLAptSSN8YdLsjxnbWPOGkDZWF5Gt9OxrxPZvdH+JcdYuU7MlKw3XmKrhCqur3hvIEII7AMID68Avg5iq0F8DeDbA9lGKYAfQBmdXjE4bvTYWfz33JIcOIv/4NHnmrL4jz7+onULAAAAwi8mC3uzjax9c/DfuMTjOs3J4rIVUM/mHUFuL8ZyinlJO+5TWl60Bgg2/lrLMZYkaY9SKM1BdA3EWoMQLy4bl3WO8bh8WYo7RjmagXubSuY2mQMeO9YrW67KkvF1rZvUUlnyjh1kbuOiNYCysbz6LrK3lcjtQJzleGyJrZuNVzV8eG8gKgjsAxg9DcpriZyoBPC11r0G7EMWwPeig+Pu+f4NPQ2Oq5n5mqHP4LjhYGfx7/nEbCBZ/H/11Z+Zk14GAABAs3rd9sR668LgGrXg+xRbkGK1LPlsWpoT4hOSSGclX65KcSFuzeu06ilZKlalnM9K2p1Zb1xPZ/NSLhdlyTMoqUF0fazXOhiPqxqPSzkfl5D1jVVyaJQW6rqLfe043SbvfWNuT8v4CO3WS8UktVSUajkv2bSxXS27qLHM5m1FX4z3taPKjaGXMjzd3kdBv894byAaZqo6Mkwbhw4dkg0bNljXgOlEOxiABuU1OK/Tq8dqwXzNyh9XsL4drW2vwXn9e/JFjXr3IQnW+2Fn6Ws9fb80K3/Tn3xM3nPRVV0z9GkH46VB+bt/8lQg2fd64iCxYY1sjJ1pzYFftAOAdjDteP0B2gGgaAdAONoBgX2gC9qBD+4Avn05bAF8Owtfp4gG8N00oP/w8f9uBvX9ZugrLbszf2nGdx192kE4HKw8Zwb4737wKWtO/9ZeeLoZ4NdAv9b7R3e0A4B2MO14/QHaAaBoB0A42gGBfaAL2oGDBuo1416D9vr3uftqf3UKkwkM4HvRsjsrDy+Zg+T6ZWfpax39XtAOwkez+EurJ8ya+oPSGv9brngLWfxd0A4A2sG04/UHaAeAoh0A4WgHBPaBLqayHdgBfDuIrwF8e16YsvDdAXz78oQF8N00M/+uf/yOWXanlyx9Lbkz/45MXwPjcjwILy3Po1n8QdTQ10F77SD/+WtOsebCRjsAaAfTjtcfoB0AinYAhKMdENgHupjodhClAL5dB//0jbW/el2nKaNZ+nc8dIuceOlJa053Wm5n0yUfk0sv8DNIkDeOB9FQXH1a9v/wV4Fl8b9/9mzZdDkDKttoBwDtYNrx+gO0A0DRDoBwtAMC+0AXE9EO3AH8Fw82rocxgK+TBvC1hI6dlT/lNJCvdfQfPl6y5nTXy+C43XA8iJYnTrxi1uHff/+v5IWXX7Pm9k/r8JPFTzsAFO1guvH6A7QDQNEOgHC0AwL7QBeRagfOAL5Ozhr4UQjg63X9i7p+y+7o4LjXXHajrDktmGxrjgfRpVn8Wos/iAF3pz2Ln3YA0A6mHa8/QDsAFO0ACEc7ILAPdBHadqDBensQ21ePiTz7AwL4E6bfwXG1jr5m6QeJ40H0aea+Bve/e/9xefLEq9bc/k1jFj/tAKAdTDtef4B2ACjaARCOdkBgH+hi7O1AA/UawNcpCgF8nc68snGZAH7P+snS14D+pRe8v+/BcbvheDBZgszi37j2TLnq8jdPRRY/7QCgHUw7Xn+AdgAo2gEQjnZAYB/oYmTtIAoBfKXBenvw2pMvqmXhE8APTD+D42rZnflLM+YgucPC8WByffeHxwPN4r/63efK2gtPt+ZMFtoBQDuYdrz+AO0AULQDIBztYGZ1dbVtYB9A8F5ffV5Oee0Rc3rDvx2vX9b5YfL7mTfKKyddYk6/e90F8uIbLpffvf5Ccz6C9/Qrj8tPT9wjjz3/sDWnuz943anyP73pall35uXmZWAQPz/2W1n9xWvyQPm31pz+xc4/SS6Pv0HeGz/ZmgMAAAAAAIJExj7QRd/tQDPt7Tr4Lx6s/dXrOoWJZtprBr5OZOCPXFgGx+2G48F0CTqLP7FhjWyMnWnNiS7aAUA7mHa8/gDtAFC0AyAc7YDAPtBF13ZgB/DtIP5z9zXK6oSJO4BvXyaAPzb9DI6r5XY2XfIxufSChDVnNDgeTKeDlefk7p88FUgtfi3PowH+v9z0x9ac6KEdALSDacfrD9AOAEU7AMLRDgjsA13U20G7AL5e179hoYF6uw7+6Rtrf/W6TggFO0v/vsp+a053OiDupj/5mLznoquGMjhuNxwPoFn8GuQ/+viL1pz+JWfPkS1XvCWQLP4nTrwiZ5x6kjkNG+0AoB1MO15/gHYAKNoBEI52QGAfcHMF8F88npfTT/5deAP4OmkAX0vo2Fn5CC0tubPy86Wey+4Me3DcbjgewKaBfQ3wa6B/UOetOdkcbPfqy8+V89ecYs3tzbfu+oWUDp2Qb3x6+J99tAOAdjDteP0B2gGgaAdAONoBgX1ML2cAXyfNwLcvRyGAr9f1LyJBy+1o2R0tv+PXuLP0nTgewMtdDz4p9zz4azl49DlrTv80i//9s2fLpst7GzfiL778E3MsgI1rz5Q9n5y15g4H7QCgHUw7Xn+AdgAo2gEQjnZAYB/TQYP19uC1rx4TefYHBPAxEv0Ojqs19OffkRnZ4LjdcDxAJ5rFX1x9Wvbf/yt54eXXrLn90ZI6msGvpXq6ZfHrc+687RHrWu3kwM7rLrGuBY92ANAOph2vP0A7ABTtAAhHOyCwj8migXoN4OsUhQC+Tmde2bhMAH+iaHb+HQ/dIideetKa0924BsfthuMB/NJgu2bx699Bdcvi16C++3n+/E8vkE985G3WtWDRDgDawbTj9QdoB4CiHQDhaAcE9hFNUQjgKw3W24PXnnxRLQufAP7E08x8raOvWfp+hansjheOB+iVDmpbWj0h373/uFkqZ1AasHdm8evyP/HVg56/ELjpo7GeS/r4QTsAaAfTjtcfoB0AinYAhKMdENhHuLkD+PblsAXwNVCvAXydCOBPLQ3oP3z8v0dycNxuOB5gEJpVr0H+ux98yprTP62lf9XlbzZPFnz77l9ac1tpSR7N+A8S7QCgHUw7Xn+AdgAo2gEQjnZAYB/hoIF6uw7+iwdrf/W6TmFCAB9taNkdHRxXB8n1y87SvzK2xZoTXhwPEJTv/vB4YFn83ez5xKxsjJ1pXRsc7QCgHUw7Xn+AdgAo2gEQjnZAYB+jZQfw7SD+c/c1svLDxBHAf+KZk+X8Sz5KAB+e+h0cV0vu6OC4YSy744XjAYIWZBZ/OzoQrwb31154ujVnMLQDgHYw7Xj9AdoBoGgHQDjaweusv8BwHfygyEPvEvnx22p/D20ROXZzrTb+OIP6dgD//GtF1n5NZOO9Iu99VCT5TO2yMe/pUz9euw9Bfbholv6e798g91X2+w7qa7mdm/7sVrnmshsjE9QHhkHL5Gz/aFzuuSVpDnZ73pqTrVuCo/X3b/r6qlmPHwAAAACASUJgfwIUMjMyM6NTUnIVa2bY2Bn646qN7wzgX/SFWtD+sp/WAvj69+23ifzRYqO0DtCBltv55o++KLfe/xk58dKT1tzONIivGfo3XPE3oa6lD4yDDoz7d599t5ldf/Xl51pzg2EH970G2Q2/ilQKBSkYU1gP7wAAYJJ06XsUMlbsYUaSuYI104m+CwCM0oCB/YrkknZQ2ceUzPHhPlQlOVy2LobNqILldgD/TfPNAXzNwrcD+BfvrAXw9X5ADzQrXwfGvfX+v5aHj5esud3p4Lg3fehWs5Y+WfpAe1oP35nFH1QJHa3nr8H9oXF8ye2rr1PJSdLj8ZXcNonPzcmcMcXpQwEA0IdCbzGLjFewulc9xkmMKRmSDL1e+h6lw9YFB/ou6KaSSzre+0kJpMkBU2zAwH5ZDvuPbZmf/GGNO2PIgg6idwvgb9jfHMCnjA4GpGV3NKDfS9kdDeJryZ0brviKrDntPGsuAD80i/8bn36nOenlQR19/EW56W+HFNyPr5eEdVFK++RAj99iKwf2id2dSmzdLDHrctnZyaIPBQBAX3qKWQSixzhJiAza96Dvgs4qcmCfs3GUZHmFyD4wiAEHzy1IZmZOls3LCUmkZ2XWvNzG+nlZWkhZVxAULcUzV3sRJJ2vylIYd/FvVmp19XulAXnN9tfp9I21IL19fUTBegaFmW79DI6rAf1LL3h/pAbH7YZ2gDDY/fflgQfb1dr+O6+7xLrWm/btQDPz4rJofU9JZMtSXLDD8904H5uQbLko9YcWMpI0DvB6UyKdl2IoD/CYNhwPphuvP6LHEbNIpCXdMWChIYsl6Ray6N4OmuMk2fwOWWdebi+eStVP7I9Vt76H/kqxEXyQqsft9F2mQ1/HA+f7p87V/wUiJAz9ogAD+2nJV5eEj+3Ri0RgX2vs68C5nWiw3g7cn3xRo979mLPt+QIzvbTcjpbe8VtHX2nZnflLMxNXR592gDAIIrCv9BcAWuqnV53agf6sON6I7Eu5uODvC7qW4Ykv1jL2e3kcMCYcD6Ybrz+ipxGz6O3Ee3vd28EEx0m6BfYxNfo5HjRiV2lJp1dlebnWdw6qbQKjFoZ+EYPnYjScwXm9rCV0dLDatV+rlc7RQWy1jI6W0NF5ehsldDAm9uC4OvU6OO717/s8g+MCQ6CD35ZWT1jXBvPdHx6Xux70f8LOj9jmrX2V42lXhgcAAACYHAVZsc4JSXpelrY3+s6lfQcYjwHoE4F9jIYG6O0Avk4E8BFCDI4LhJdm6mtwPyh7/r4ixdWnrWsBiC3IjrR1WUqyz1dk31lnNCFbNxPWBwAAwAQqrFi/YtG4fkqzYmRrI7Lf8xhVAGpCE9ivVAqSyyQl6R49PpmUTK7g/+ydvRzXMpIZYxleC9Gfkln36zYSvf5sqHbfpHje1bGs+sjexpMWWtYnI7mC/0+tSiEnGWMb6o83pmQmJz0swsFYn1zG2M/Ny6vto36X6RMBfIRYP4Pjama+ZugzOC4wfEFl6zvtvO0ROVh5zro2uNR8PbLvL/OockAacf2t0hLXN47/dv8hafSFWgyp3zHWvgIAAKjxPM63xjuSxnG+9dhsHcsd9/PVH+jW9+jG5+MHiv/Q/4mkQiNdXzSuLxKTzY3Ivr+kGI/XvmLMc76PzNhf7aaafh7TZID3hZbcdD6m7dQmxgj4MP7AvvFGzxgNKh6fk8XlkpTcSbLGjOXFOYl3faPXPshn7OVYc03GMkrLxjLiepAIorWU5LCP4d3ND4t4XOZa1mdZFufi5odHZzqgnrFv5hZl2bVjSsuLMqfb08PRxVyfGWN9FpeNXeLa0eY+0mV2+1ADJksjS/8zZgkeP+yyOzdc8Tdy6QX14hsAhuTo4y/KwaP+AvBnnHqSOa298HRzoNyrLz+3XlP/po/GZM8nZuUbn36nfPuzl8n+Xe+VjbEzrUcGIDVvfFWx+Mg86l6G53D99tJh60IHg/c76CsAABBWFQ0uesQ7SsZx3jw227EOM8ZiHctrc2p89Qd663u06vL4wOI/DfR/oqC5DI89MoOzlGU/5XjMMa50sGbHS1ZaXpFO4bpeHjO694W/GCPgZeyB/cJuDVpbV4wmnU5nJZ/Pm1M2m27UqzXe6IvxjPFx4K2QqX2Q2xLGcrLmcoy/6cZZwOXF3W2XEaTVXdaHhV5JpI1tqa1LOuHYouW5jr8S0G2yx+FTuk3mvtH9Yi7G2B7jQGWPXdNJ/cPLuq7rlDbXSZfXul5xHwc/IOoeOHaPfOl715pZ+n5p2R0N6FN2BxgdDeqft+bkrsF6DdTbAXu9vvO6S2T7R+Pm/fT+my4/zwzk63LOX3OKeQIgWClpJO13yzxyluFJy44BBwwLot9BXwEAMNEOH5BCodA0VTx/1h8+5nHeDtTrcb4pLlBTWtwmOTP4b8VYjBtrx/HWY/i4DuFBxX9s9H+ioZLb1VyGx9ZUjmdRdveya1cyRpuwXjV9r6eN102XlVgv8drcVj08JpD3RWxB9lrv79Yp63i/J2R925UGuqh2sLq6al1qJ181vr9WdTFG8zSu9a6cTVSNBlLNl8vWHLdyNZuwn0Oqaa8nyafrtxsNopr1WlQ5by3HtZ6OxyY8H9iQT9vP4Wc92i/T3Gb7PomssYUefGxT03KsyXO9ytmq8YHhuI/3dpaN52y+n3XDlOveDhA1//JMpbr7+5+sLv7nTb6n//hf/kP1B+XvWkuYPrQDwGc7cB6/2x3jlfPY3O6A61yW132C7HfQV4BPHA+mG68/oscZs2g/JdLZaptDX4vu7cD5nMZ3+Xy+mu8wtX1aj+N86/G5OV5Sn4wDtPueznhGIH2PPm4PPv5Tm+j/jJ7/44HzNW2NGza9Tt12rM/Xvkk/jxnB+6Kn7UZohaFfFGDG/qoccZ39dk9e50hjC0WpFpckFWuXqRaThcZodLJ6xL2UiuR2NVLW0/mieCa9xVKyUCxLuby9/rOfYTMavxQ9Via2sKPrT/UL9d8pGV2B7F7PbdJ9Z3wYWNfa07Pi9llG4wNMllLe+zqWWpK9juUt78oN+HMiIFycg+P6Lbuj3nPRVfK5D99uZukDQEc+y/E4y/A0ZS4NYKB+B30FAMAUa5S6tWYEpiSLc3My12Hym6Wsx/nW43NzvMSUzkt1KdVS4i+13ZEhvLwykkoGboPHf1rR/wk555hSjjI8Nmc5np7fl8Z73eu178jHY4b+vqjkZFu9PEda8kZ7BfoVYGC/+wFrm98iaR2UWgpPleWw3R6MBtH5u3FMYm0PIAEzPizaNX73T/Vba2k56o8ZH3FbW0bTa9ADY951HG/mXFb3n/r7OfgF6l+yIsWzG9OP39Y8PfSuxnTwg43p0Jbm6Z+ua0xHP9WYHtvZPOnz2dMTtzdPv1lpTM/+oD6d/rsHRV74WWN65bHm6bVnGxNCSwfH3fP9G/oaHPeay26k7A4Qdvbn89j5KcfTXIYnkLh+YP2OEPYVAADoW0qWqprgV9ZqBU2TzjPL2Vj31GPk8tyoB7H0WYKj03E+vr6xDYmslNsFCZ1lTzQxMwLH79b4jwv9n9DrmszS9L5clhW/kf1O7/V2fD1m+O8L54mDdH7JeKcC/Rv/4LltaK27+mTN81RYqdfq6lhLK0oqR4zDrCWxVTrE9btrWpaf/ROX9fUP1REN4OEMjLuD5s6AuiPY3hSE18kZoHcG74/d3Dw5g/7OkwE6OU8UOE4iXPyccZvzBIP75IPzxMR9M82T8zbnY5zLczyXOTnXQyfnOjrXP4CTFubk3MfOfe98XSJMg/h3PHSLOTjuiZeetOZ2xuC4QATpZ5V+vurnpn6GjVGq8S3S6N97DATWJXNp5KLQVwAAoG/eCX46L7WwJMVyvhGYM45riz0V+u4mLXnXCYXmqU3FgV7E1smsdTGqfMd/gkT/ZwT8JLPEZHMjsi/LfiP7s+tafpXSlZ/HDPt9Ucg0xsk0T0xZl4E+BRjY73bAqnb8uUulUpBMMikzMzPmFI/HG1P9Xd9FPw07jMqNkeQH3qaelxWTdVHvFYSJMzjuDJo7g+nuQLszCK+TM0DvDN4fG/ykhTk5TzI4Tz44T0q4T1j0c9LCuQ46udfRuf79nLRw7ceXf/M9eeCf/g/5UuHj5iC5fjE4LhBx+nmgn0X6uTKuAH+XcjzDKMMzEPoKAIBpFkvJdmeJ2zGVqZkmgcR/BkX/Z/h8JrMMVI4naEN9Xxjv+/r7OyHZ7UT1MbgQZOxXJJfUD/I5WS7Vm49vlSP1c2nwwP7B0PR60sIOwNuTO0DvDN4f6+OkheMkQuUn/0FuLX1J7jj0n+Tl1162VrizU2dek/nTH5EbXvf/kgsPvbv1hMWoT1o495VzP+rk3MfOfa+T83UBppm2I2232u60bYyUM0DgLsczhDI8A6KvAACYdk2BRYlGmZpoGiz+EyT6P8PXVKtejniOxWlOZZHZRmRfdo22HlaTYb4vChnjfW9dbjeWJtCrsQf2C5m41MeMMJq6DnxSdmf7dygiH+OUaUeh3z8EHxGgl6snycqLl8g3n3+XPP7aG6253b3n5Mflc2ffJ1eecqw5MO4OmjsD6s5AuzMIr5MzQK+TM3jv96SF80SB8ySCTs4TDO6TD85fUvj9lYVOzmU6n8tahz9+fqF22bmOOtnr7j5h4Txp4d4fzn3l3I86Ofexe/87XxvArd37Qt+D+h7X9+kIOQMETeV4wlaGx0BfCgAw9SagnE0UDBr/CRL9n2Fz1qo3+sM6QLXHWJy1aVGWHed5PEtZjsjQ3heVnOxqRPVlL1F9BGS8gX3nG9ss5VM0Bz7p++29emRsjT9QzsFvgtwmX8uqSOMEpc+BfIAQqPxujex5NiH3vXKRGeD3I/aGE3LTmSW55oxVM2N/4jkD4+6guTOg7gy0WwH4N776/dpld5C+3QkLnbxOWOhkn7DQyXkSQSfnCQb3yQfniYkAT1rUJ+c62uuuU7sTFjq594d9wkIn537UybmP3fvffl0wPPp66XtFX9NRcA4E5ijHE7oyPG70FQAA08hZV1tmZR0xt+AFHf8JEv2f4DnHw+xVWAYnDux9UZHcNseAuTsWwvG+x0QYb2DfWbuq36w1ZxC8dFgGGb+k64jro+LMFhhwm3reP85MQjo0iADNzNcM/Vv/9XI58W+nWnM7s8vuXP/Gn8qFJz1vzUWkDXDSoj45A/TO4P2xNicsdHKeDNDJeaLAeRJBJ+cJBvfJh3YnLHRqd9LCuTz3cznXw72OzvUf9kkL5+sSFrptul91+4fKORCYXY4nfGV4TPQVAADTzhmb8DVgJnoWRPwnSPR/hqrgSNdP512/yvCcytIY6sJdynKEhvC+qOS2NX6pwoC5CFgIauwPyJkRJ8vSbQBtHWW9ibPRdjgbV8klGyNXD51zVO3O9cW6rpdr/3SrVebMJBzJwfbinSLJZxrTex9tni77aWPaeG9j2rC/eXr7bY1p7dca00VfaJ7+aLExnX9t8/Sm+cZ01gfq04tvuFzkjHc2plMubp5OOqs2YaTssju3/ut75OHfnmvN7c7M0j+rZJbdmYosfUSfMzjuDJo7g+nuQLszCO8O0DuD98eGfNLCeVLCfcJCJ68TFjo5l+d8Huc66ORcv8dz1g7zSbdfn1v3yZA0leNZ3C0FR8c/kd0eijI8prD3FQAAGKqK5Bqp5JLYupls2mlA/2eInGV4/CazOJNijL7zuMrxBP2+qORkWyOqL3mi+gjYeAP7zqB6m5GvK4WMzHSOXDc1/uW5pHi2u0rBGqTF+GJtzTI1ZccvyjaPB2vwPN4oBDcCrg+0xW0e21SRgq/1isnCjkaNOl1WpuD9waT7urG8EY7QbQfGdXIHzZ0BdUewvSkIr5MzQO8M3uuJA+fkDPo7Twbo5DxR4DiJ8NiZxm3OEwzukw/2SYkrq61Tu5MWzuU5nqtpHXRyr6Nz/QM4aWFOzn3s3PfO1yVktOyOBvR7KbujQXzN0L/hDx+UNa/zN6AugCHzOmHR6aSF84SF+6SF3t4rfW49KaAnE4YR4Hd/Mdhmd/wTsnVzmEIGEegrAADQq0pOkjPJtse0GuN7dVPd97TsoPb1cAQS/wkS/Z+hcZbh6eEkSGxhh9ECLWMrxxPs+8I5gHA6v8QJIQRuvIF91xfeuWRGckaD0az6igbiM0mJ+/hQjy3sbfrJzmJ8RpKZnLEsHWHb+GssZyY+5zhYO6Vke+PBRqONS9JcD+OxuYxxeabeUBOJxv2GrXWbkuY2mSOGm+sVlzlrvdLpxoeOp9SSNMafKcnynLWNOWsEcmN5Gd1Ox75mhO6AOIPjzqC5M5juDLI7A/A6uQP0zuB9ACctzMl5ksF58sF5UsLvCQudnMtzPo9zHXRyr6Nz/ductHj5Lf+LrMifm2V3/A6Oe+rrqrLpD38jnzv/Ubn0D08L/UkLAGOgJxM0wK+/EAg0wO86UV+yOiKJrRKquL6irwAAmEi1Y9rMjMYIrO/55pSTjMYJZozv1fVDmw7mGnTgbVWO1J+zwzSWAOaIBRT/CRT9n6FoKsPTU+3JlMw7Xo/F3V1KcgxLUO+LQqbx+ZJIy3qxHu81TcNnAIZipqrFrNo4dOiQbNiwwbrmpSCZmTnrTJwOftLHQVDPoscbZ7C8JLJ52brPCsyn81L1/OmKsS5JY106LUgP1EZjW2ppbRXJJZ1n6d30AG88TnbXzx5rjbCW1XCeXW67njWFzEy9gXsuy9RtmxKSLRdlodx43vbL0kyEbcZzdtxBBmtbUxypbN3bAUbhgWP3yMrPl+Tl371gzeku9uZ3yPylGbnwrLXWHB80g9fmvKza3dbpfqrTfX//nHXB0O5+vSyv020A/NGTrhcu1E6oOvR1PPDo5ySyZSn6+UbYrV8ReL+DvgK6o1803Xj9ES1+YgSWRFqye5d8BWx7i5P4NNBx3vF8iayUi+0G5nTGPaxYgvuOg/Y9ut0eRPyH/k8otG0HTa9xH3FC5+vrfnwPr31dP48xDf6+6Kn6R8e2i7AKQ79o4Iz9Ri34PsUWpFgtSz6bluaE+IRxbM1Kvlw1vvw2hq5JrLcutEjJUrEq5XxW0s0LMh5kNDTj4FA2DlytQX0VkwXzsV7rYDzOGq29od1I142flrVfT4uvHafb5L1vzO0x1qt5czqNzB6T1FJRquW8ZNPGdrXsosYyOVAhTB5/9qh880dflDseusV3UP/UN5wh8+/IyPXv+3xvQX3lzOZ3/spi1L+0cP66wfnLB52cv4pw/2LC+WuKAH9p8Ys35mqXnevoXPc2v7IwJ/f+cO4r537UybmP3fvf+doAw6QlgJ7c2195Hzejn+P4Na+hlzI83foVQfc76CsAACaJFSNoc1zTY7LGHLL5slSL/oL6/jjHzBtED8d5n9bV6xC34/85++qbBBL/of8Tao5BkhP9jEWQmm+U49FfvDRlsvfTJvptR4O/L2LdG1zD7DrjGYHezQyWsQ9MPtrBeGgQ/65//I6Zqd9rlv41l90oa047z5qDIIS+HbT7pUKnXzB0ut7pce1+ZaE6Pa7dbZ0eg9HTE0x6ckr/unA8AGgH047XH6AdAIp2AISjHRDYB7qgHYxe5dc/l5WHl8xsfb80M3/TJR+TSy/wk5WBXtEOxqjXEwLukwOdrrtvm+aTFhrI11+f6K9F2qAdALSDacfrD9AOAEU7AMLRDgjsA13QDkbHztK/r7LfmtOdlt3Z9Ccfk/dcdJV5GcNBO0DgOgX9/Z4ccF5/+k6R36xYV3zSsk4ayO8S0LfRDgDawbTj9QdoB4CiHQDhaAcD19gHgCBoyZ0vfe/anoL6Wnbnhiv+Rq6MbSGoD0SNc8wE93gK9jgLOtnjL+jkHJ9BJ+fYDadvtBbsgz6nPt4eS8JHUB8AAAAAgDAhsA9grLTszp5/uKGvwXFvuOIrvQ+OC2B6aUBf6+frINE6GDQBfQAAAABARBHYBzAWGsRf+fmSfPNHX+yplr6W3Pnch283s/QBoM45PoCbM6B/8c7arwIAAAAAAIgwAvsARs7M0v/+DWbZHb9Z+pqZf/37Pi/XXHYjZXcA+KMBfa2f/95HCegDAAAAACYKgX0AI6NBfM3Qv/X+z8iJl5605nbWKLvzN3LpBQlrLgB04Azo/9Fi7ToAAAAAABOEwD6AodOA/vcOf9scHPfh4yVrbnc6OO5NH7qVwXEBdPfas7Wa+QT0AQAAAABTgMA+gKHSsju33v/Xctcj3+lpcFwtuaOD46457TxrLgB0cOGCyMZ7CegDAAAAAKbCzOrqatW6DACB+e2/vSz/4zd3y5HnHjQv+/EHrztVLn7jrLzv3I+YlwEAAAAAAAC0mqkarMstDh06JBs2bLCuAdOJdtA7zdK/46FbfNfRV1p2Z/7SjDlILsKHdgDQDgBFO5huvP4A7QBQtAMgHO2AUjwAAvP4s0f7Hhz3+vd9nqA+AAAAAAAA4AOBfQAD09r5Kz9fMmvpMzguAAAAAAAAMFwE9gEMxB4c977Kft+D4+qAuJqhz+C4AAAAAAAAQO8I7APoSyNL/zNmCR4/7LI7mqV/6QUJay4AAAAAAACAXhDYB9CzB47dI1/63rVmlr5fWnbnhiv+hrI7AAAAAAAAwIAI7APwzR4c946HbvFddofBcQEAAAAAAIBgEdgH0BWD4wIAAAAAAADhQWAfQEc6OO6e79/Q0+C4mpnP4LgAAAAAAADAcBDYB+BJg/hackcHxz3x0pPW3M7ssjtaS5/BcQEAAAAAAIDhILAPoIkG9O3BcfWvXwyOCwAAAAAAAIwGgX0AdVp2R+vo9zM4rpbdYXBcAAAAAAAAYPgI7AOoD477zR99UR5/9qg1t7v3XHSVfO7Dt5tZ+gAAAAAAAABGg8A+MOX6HRxXM/SvuexGyu4AAAAAAAAAI0ZgH5hSOiCuZuj3Oziu1tQHAAAAAAAAMHoE9oEpY5fd0Sz9h4+XrLndaSD/pg/dyuC4AAAAAAAAwJgR2AemiD04bi9ldzSIryV3tPTOmtPOs+YCAAAAAAAAGBcC+8AU6GdwXA3o24Pj6l8AAAAAAAAA4UBgH5hw/QyOq2V3tI4+g+MCAAAAAAAA4UNgH5hQmpnf7+C417/v83LhWWutuQAAAAAAAADChMA+MGHssjtaS5/BcQEAAAAAAIDJQ2AfmCD9DI6rmfmaoc/guAAAAAAAAEA0ENgHJkAjS/8zPQ2Oq2V3tJb+pRckrLkAAAAAAAAAwo7APhBxDxy7R770vWvNLH2/7MFxKbsDAAAAAAAARA+BfSCi7MFx73joFt9ldxgcFwAAAAAAAIg+AvtAxPQ7OK6W22FwXAAAAAAAACD6COwDEaKD4+75/g19DY6rE4PjAgAAAAAAANFHYB+IAA3ia8kdHRz3xEtPWnM7Y3BcAAAAAAAAYDIR2AdCTAP69uC4+tcvBscFAAAAAAAAJheBfSCktOyO1tHvZ3DcG674CoPjAgAAAAAAABOKwD4QMvbguN/80Rfl8WePWnO7e89FV8nnPny7maUPAAAAAAAAYHIR2AdCpN/BcW/6s1vlmstupOwOAAAAAAAAMAUI7AMhoJn5mqHf7+C4lN0BAAAAAAAApgeBfWCM7LI7Wkv/4eMla253OjjuTR+6lcFxAQAAAAAAgClEYB8YE3tw3F7K7mgQX0vu6OC4a047z5oLAAAAAAAAYJoQ2AdGrJ/BcTWgr9n5OjiuDpILAAAAAAAAYHoR2AdGSMvt9Do4rpbd0Tr6Wk+fsjsAAAAAAAAACOwDI2APjqtTr4PjXv++zzM4LgAAAAAAAIA6AvvAEDE4LgAAAAAAAICgEdgHhqSfwXE1M18z9BkcFwAAAAAAAEA7BPaBgDWy9D/T0+C4WnZHa+lfekHCmgsAAAAAAAAArQjsAwF64Ng98qXvXWtm6ftlD45L2R0AAAAAAAAAfhDYBwKgmfmaoX/HQ7f4LrvTyNL/CoPjAgAAAAAAAPCNwD4wAOfguFpT36/3XHSVfO7Dt5tZ+gAAAAAAAADQCwL7QJ80kL/n+zf0NTjuNZfdSNkdAAAAAAAAAH0hsA/0SIP4WnJHS++ceOlJa25nDI4LAAAAAAAAICgzq6urVesygA5++28vy2PPr8qPnrrTvOzXW05bK+9780fknFMutOYAAAAAAAAAQP9mqgbrcotDhw7Jhg0brGvAdNJ2cPK5v5eVh5fMQXL90iz9TX/yMeroYyJwPABoB4CiHUw3Xn+AdgAo2gEQjnZAKR6gAy27oxn63/zRF30H9TWgz+C4AAAAAAAAAIaFwD7Qhj047uozP/Q9OG7sze8w6+gzOC4AAAAAAACAYSGwD7hoZr5m6PczOO717/u8XHjWWmsuAAAAAAAAAASPwD5g0az8lZ8vya33/7U8fLxkze1Os/Rv+tCtZtkdsvQBAAAAAAAADBuBfcCgZXc0oH9fZb/vsjsaxNcM/Ruu+IqsOe08ay4AAAAAAAAADBeBfUw1O0u/18FxN13yMXNw3EsvSFhzAQAAAAAAAGA0COxjaj1w7B750veu7SlL3x4c98PrP07ZHQAAAAAAAABjQWAfU8ceHPeOh27pqewOg+MCAAAAAAAACAMC+5ga/Q6O+5bT1jI4LgAAAAAAAIDQILCPqdDP4Liama8Z+pvf+kkGxwUAAAAAAAAQGgT2MdEaWfqf6WlwXC27o7X0GRwXAAAAAAAAQNhMcWC/IpVCQQrGVLHmNClkZGZmxpySuYI106nL4zF2zsFx/bIHx6XsDgAAAAAAAICwGjCwX5Fcshb89jslc+EIg1dy2yQ+NydzxhRP5joG50uHrQsOvTweo6Vld/b8ww19DY57wxVfYXBcAAAAAAAAAKE2YGC/LIf9j0EaKmXnipcOG1vSm0Efj+DZZXe++aMv+i67o95z0VXyuQ/fbmbpAwAAAAAAAEDYBViKJyHZfF7yXaa9CzHr/uOVmk8ba1yTSM9Lyrrs16CPR7DMLP3v39DX4LjXXHYjZXcAAAAAAAAAREaAgf1ZWZdKSarLFI6wviG1JMVqVarGVFzqIyw/6OMRCA3ia8kdHRz3xEtPWnM7Y3BcAAAAAAAAAFE2xYPnIso0oP+9w982B8fVQXL90sFxb/rQrQyOCwAAAAAAACCyCOwjcrTszq33/7Xc9ch3ehocV0vu6OC4a047z5oLAAAAAAAAANETjsB+ISMzMzPmlClY8yoFyWWSkrTm65RMZqRQsW6vq0ghl2m634xxv1zrHZsVcvXHJHP2k/bA5+Mr9nYkHeunUzIpGeNxHdfSc78Y2+vaL762t4m1z4x1qC/DXI6x3EzOYx+HQz+D42pA3x4cV/8CAAAAAAAAQNSFMmO/okHn+JwsLpekZM1TpdKyzMU1kG5Fnis5ySTjMre43HQ/Me63OBeXZD0a7uVw/TGlw9aFnnR5vLluMxK3t6NpBQ3GjOXFOYnPJMXenG4qBd0vxva69ou/7a0xlzFj7TP3ShnXS8uLtX1sLCtM8f1+BsfVsjtaR5/BcQEAAAAAAABMktAF9ld3JSVuB+oTacnm85LPpiXhGOO0tLhNcmbwf1GW9Y7Gjemscb98VtKOO5aW5xqZ7iNW2G2tm8lYv3TWWD9dx7xkdXusW4y1lMV4Rrqtprlf5hz7pc321k96eKjkHMtQxnJq+033ceuy4uPaeQ6ama8Z+v0Mjnv9+z4vF5611poLAAAAAAAAAJMhwMD+qhwpFKTQYfKTAW5nkafzZakWl2QhlZLUwpIUi2XJ1uPOJVm0g//pvJSLRVlaMO6XWpAl43I+bd7JtLwynuB0fL2xsom05MvGdlSN9VtaMNZP1zElC7o9Vef2LEu31bT3SyJr7RfH9pYbC5LSvgPe+7mSk22L9ZB+ff/W9pvuY2tZxs5rrNb4TozYZXe0lv7Dxxvr3Q2D4wIAAAAAAACYdAEG9kuyODcncx2m3T6DxBp0XkrFrGu2mCzscETsVTov1aWUcUuz1PasIzi90jUbfhhiC0UzcJ6KudfO1rw9q0e6n/bQ/VJcaF1ebGGH1JdU2icHPBalvyCww+N6cqB1/9bEUkuy13GiYHlXbuQleezBcXspu6OZ+Zqhz+C4AAAAAAAAACbdCEvxJGR93LrYSTrfNugs8fWNgH0iK+WllHXFJbZZttbvuCo+YuZjVzpcti610Wm/SErmG5F9aV1UQVaWrYuSlh0eJwec/JwoGIZGlv5nehocV8vuaC39Sy9onJAAAAAAAAAAgEkVYGA/LflqVaptp6J0iSd3F1sns9bFqKpUKo3Jmjd0lSOyal2UxHrpfn4lLlpJqMbrREHwtH7+l753rZml75c9OC5ldwAAAAAAAABMk9ANnjtpKpWCZJJJmZmZMad4PN6Y5upp9MNVPlwvwyOz61pKF7WKyboRn0HR8jkaqPeDwXEBAAAAAAAATDMC+0NTkVxSA/lzsmwNfDsulSP1fP1Qu+ayT1uX2mNwXAAAAAAAAADTjsD+kBQycVmsx/MT5sC3ZXd5orxrMOAhiY06/b5Pdia+FwbHBQAAAAAAAIAaAvvDUMnJLsdgtflq0Rz4dtAhBgKxesRHbf+KNJL8fQ56HBDNxHeW12FwXAAAAAAAAABoRmB/GJw17dPzkrIujk18vTTGwj0sXcfCrRyQfY2i/LJuxGck5i+tZe0zOC4AAAAAAAAAtCKwPw1im2VrPbK/LLtynXP2Kwf2jfXERC2g/xVzYnBcAAAAAAAAAGhGYH8YnBnyyytSsC46VQoZmZmr1+sZspgs7GjU8y8tbpNMwTu4r+sVrw8OkJDs9vH83kCD+wAAAAAAAACAVgEG9lflSKEghW5T9wLv0efKkJ9LZiRnbHilolNBcpmkxEcW1LeklqQxVm9JlufiktT1ylmvSy4jmeRM03olsntlIRQDAwAAAAAAAAAAbAEG9kuyODcnc92m3V7565MmJgt7s4669svGvolLPK7TnCwu1zLiE9m8ZOt3Gr7UUlny6cYTlnS9Fq3XZXFZrNUyJCSdL0uRqD4AAAAAAAAAhM6Agf24rA8kMN0oXZNYb10Y0LpZ60Jb/p/T+/Yuj48tSLFalnw2LYmmfZSQRDor+XJVigv///bu2DZhIAzD8O9dkuo2yAYswjy0LMIGbOCrGOZiS1dEoYlS+ZOfp7ItIZBOX/MW5nM+++d3/PSng/ioy/1Z4/Wo23X7Hb8+8rU9uN4e9RrPul9EfQAAAACAI1rGZl6/6b1Xa23ewTnZAdgB7OwA7ODsnD/YAezsAI6xA3+eCwAAAAAAQYR9AAAAAAAIIuwDAAAAAEAQYR8AAAAAAIII+wAAAAAAEETYBwAAAACAIMI+AAAAAAAEEfYBAAAAACCIsA8AAAAAAEGWdV3HvAYAAAAAAA5uGZt5/ab3Xq21eQfnZAdgB7CzA7CDs3P+YAewswM4xg68igcAAAAAAIII+wAAAAAAEETYBwAAAACAIMI+AAAAAAAEEfYBAAAAACCIsA8AAAAAAEGEfQAAAAAACCLsAwAAAABAEGEfAAAAAACCCPsAAAAAABBE2AcAAAAAgCDCPgAAAAAABBH2AQAAAAAgiLAPAAAAAAAxqr4BFeL3utmMEvsAAAAASUVORK5CYII=;" vertex="1" parent="1">
          <mxGeometry x="60" y="790" width="926" height="278.53" as="geometry" />
        </mxCell>
      </root>
    </mxGraphModel>
  </diagram>
</mxfile>
